<svg xmlns="http://www.w3.org/2000/svg" xmlns:xlink="http://www.w3.org/1999/xlink" width="86" height="54" viewBox="0 0 86 54">
  <defs>
    <clipPath id="clip-path">
      <rect id="Rectangle_1" data-name="Rectangle 1" width="85.612" height="54" fill="none"/>
    </clipPath>
    <clipPath id="clip-logo">
      <rect width="86" height="54"/>
    </clipPath>
  </defs>
  <g id="logo" clip-path="url(#clip-logo)">
    <rect width="86" height="54" fill="#fff"/>
    <g id="Group_2" data-name="Group 2">
      <g id="Group_1" data-name="Group 1" clip-path="url(#clip-path)">
        <path id="Path_1" data-name="Path 1" d="M85.612.89q0,.736-.863.736h-.524a26.8,26.8,0,0,0-2.774-.184q-7.954,0-18.744,6.9a59.589,59.589,0,0,0-8.786,6.779q-3.484,3.376-13.071,14.2Q29.534,42.148,23.8,46.289A19.049,19.049,0,0,1,20.47,48.5c-.123,0-.185-.057-.185-.169q0-.031.678-.951A69.539,69.539,0,0,0,30.32,30.715q3.9-9.635,3.9-16.08,0-10.371-8.447-10.372A17.039,17.039,0,0,0,18.1,6.534a31.779,31.779,0,0,0-7.923,5.89,32.665,32.665,0,0,0-6.212,8.819,21.175,21.175,0,0,0-2.327,9.1A8.452,8.452,0,0,0,3.7,36.351a7.273,7.273,0,0,0,5.58,2.208q6.844,0,13.318-8.711,4.624-6.228,4.624-11.136A5.29,5.29,0,0,0,26.127,15.2a3.647,3.647,0,0,0-2.944-1.3,4.936,4.936,0,0,0-2.081.476q-1.033.476-1.033.966c0,.122.072.184.216.184h.247c.575-.081.894-.122.956-.122q1.388,0,1.387,1.5a2.169,2.169,0,0,1-.74,1.641,2.452,2.452,0,0,1-1.727.69A1.713,1.713,0,0,1,18.5,17.27a3.552,3.552,0,0,1,1.387-2.776,4.924,4.924,0,0,1,3.3-1.181,4.2,4.2,0,0,1,3.33,1.457,5.622,5.622,0,0,1,1.264,3.819q0,6.012-5.976,13.19-6.1,7.3-12.568,7.3a8.6,8.6,0,0,1-6.654-2.821A10.4,10.4,0,0,1,0,28.957Q0,20.431,8.606,12.1T25.973,3.773a10.8,10.8,0,0,1,8.436,3.605,13.645,13.645,0,0,1,3.233,9.467A28.865,28.865,0,0,1,34.1,30.01,85.919,85.919,0,0,1,22.659,46.059a1.632,1.632,0,0,0-.308.429l.062.092q.523,0,3.853-2.854a58.129,58.129,0,0,0,5.3-5.124Q34.035,35.932,44.578,24A115.444,115.444,0,0,1,55.554,12.873,67.623,67.623,0,0,1,66.189,5.462Q75.777,0,83.083,0q2.527,0,2.528.89" fill="#e5e5e5"/>
        <path id="Path_2" data-name="Path 2" d="M130.814,60.846q-.06.509-4.393,4.124a45.755,45.755,0,0,1-12.14,6.935l-2.135,2.789a45.149,45.149,0,0,1-12.4,11.669q-6.3,3.826-10.539,3.579a3.68,3.68,0,0,1-2.45-.976A2.4,2.4,0,0,1,86,86.874q.769-6.521,18.174-12.26,3.76-1.253,4.861-1.7l7.274-9.6a64.035,64.035,0,0,1-6.326,5.7,5.537,5.537,0,0,1-3.514,1.155,3.854,3.854,0,0,1-3-1.648,4.927,4.927,0,0,1-.889-3.639q.649-5.5,9.288-9.513,5.77-2.672,8.857-2.493,2.153.126,1.9,2.225a3.926,3.926,0,0,1-.484,1.349l2.388-3.1a7.463,7.463,0,0,0,1.66.322,24.429,24.429,0,0,0,2.753-.063q-.285.271-3.72,4.587l-10.5,13.092a49.438,49.438,0,0,0,8.053-4.1,51.066,51.066,0,0,0,7.115-5.948q.613-.6.793-.594a.167.167,0,0,1,.139.2m-22.2,12.585q-.723.31-4.269,1.576-17.21,6.232-17.885,11.957a1.938,1.938,0,0,0,.63,1.7,3.1,3.1,0,0,0,2.038.792q3.947.23,8.1-3.129T108.1,74.042Zm13.619-18.355q.191-1.622-1.567-1.725-3.229-.188-9.231,5.209t-6.415,8.9q-.252,2.131,1.83,2.253,2.117.124,7.844-5.242,7.231-6.782,7.539-9.391" transform="translate(-58.483 -35.958)" fill="#e5e5e5"/>
        <path id="Path_3" data-name="Path 3" d="M69.817,65.244A1.016,1.016,0,1,1,68.8,64.233a1.013,1.013,0,0,1,1.016,1.011" transform="translate(-46.108 -43.692)" fill="#e5e5e5"/>
        <path id="Path_4" data-name="Path 4" d="M188.624,111.763a.906.906,0,1,1-.906-.9.9.9,0,0,1,.906.9" transform="translate(-127.072 -75.41)" fill="#e5e5e5"/>
        <path id="Path_5" data-name="Path 5" d="M135.3,61.864a.992.992,0,1,1-.992-.987.99.99,0,0,1,.992.987" transform="translate(-90.683 -41.409)" fill="#e5e5e5"/>
        <path id="Path_6" data-name="Path 6" d="M62.3,69.448a.734.734,0,1,1-.734-.73.732.732,0,0,1,.734.73" transform="translate(-41.379 -46.743)" fill="#e5e5e5"/>
        <path id="Path_7" data-name="Path 7" d="M165.592,157.118a.733.733,0,1,1-.734-.73.732.732,0,0,1,.734.73" transform="translate(-111.64 -106.377)" fill="#e5e5e5"/>
        <path id="Path_8" data-name="Path 8" d="M27.647,87.257c1.966-.028,4.026-.077,6.141.05a32.045,32.045,0,0,1,3.2.334,21.71,21.71,0,0,1,3.192.735A13.491,13.491,0,0,1,45.841,91.7a13.918,13.918,0,0,1,2.046,2.718,28.725,28.725,0,0,1,1.58,3.226c.486,1.134.947,2.3,1.484,3.445a17.891,17.891,0,0,0,1.941,3.321,10.834,10.834,0,0,0,2.856,2.612,11.931,11.931,0,0,0,3.442,1.4l.438.1c.146.035.293.054.439.081.293.047.583.111.874.136s.58.068.867.094l.853.048a19.21,19.21,0,0,0,3.347-.1,23.851,23.851,0,0,0,3.135-.583,23.109,23.109,0,0,0,2.881-.932,28.642,28.642,0,0,1-6.066.672,20.652,20.652,0,0,1-3.182-.24l-.81-.12c-.268-.049-.532-.106-.8-.157s-.528-.128-.792-.191c-.131-.035-.265-.063-.394-.105l-.388-.124a11.027,11.027,0,0,1-2.906-1.406,9.563,9.563,0,0,1-2.289-2.3,17.708,17.708,0,0,1-1.653-3.029c-.486-1.09-.932-2.245-1.434-3.417a26.806,26.806,0,0,0-1.733-3.45,14.8,14.8,0,0,0-2.429-3.041,13.032,13.032,0,0,0-3.134-2.18,15.613,15.613,0,0,0-3.446-1.23,20.456,20.456,0,0,0-3.454-.5,27.367,27.367,0,0,0-3.327,0,51.469,51.469,0,0,0-6.142.794" transform="translate(-18.806 -58.779)" fill="#e5e5e5"/>
        <path id="Path_9" data-name="Path 9" d="M161.766,128.2a.493.493,0,0,1-.372.253c-.3.069-.894-.115-1.161.4a5.148,5.148,0,0,0,.116,3.406c.5,1.605,1.52,1.767,1.938,1.767a5.61,5.61,0,0,0,1.451-.266,1.67,1.67,0,0,1-1.044-1.373c0-.381-.162-.289-.209-.324a1.523,1.523,0,0,1-.847-1.57,2.787,2.787,0,0,1,1.033-1.72c.209-.277.382-.728.708-.774a1.051,1.051,0,0,1,.754-1.155c.592-.173,1.172-.392,1.172-.392s-.082-.208-.488-.208a3.082,3.082,0,0,0-1.694.161,2.352,2.352,0,0,0-1.357,1.791" transform="translate(-108.837 -85.842)" fill="#e5e5e5"/>
        <path id="Path_10" data-name="Path 10" d="M173.755,128.057a8.615,8.615,0,0,1,2.663-.122c.383.156.8.831,1.149.849,0,0,.626-.1.783.1s.383,1.23.575,1.4a2.119,2.119,0,0,1,.157.744,3.681,3.681,0,0,0,.487-.987c.017-.278.122-1.109-.418-1.351a2.516,2.516,0,0,1-1.184-.838,1.371,1.371,0,0,0-1.41-.894,8.494,8.494,0,0,0-.923.121,4.231,4.231,0,0,0-1.427.485c-.331.278-.619.515-.453.485" transform="translate(-118.157 -86.364)" fill="#e5e5e5"/>
        <path id="Path_11" data-name="Path 11" d="M191.356,137.676s-.263.069-.3.242a1.715,1.715,0,0,0,0,.676c.052.329-.1.728-.033.9a1.618,1.618,0,0,1-.018.762c-.019.19.242.26.486-.122s.383-.433.383-.433a1.832,1.832,0,0,0,.5-1.784,2.024,2.024,0,0,0-.383-.953c-.1-.121-.171-.138-.277.1s-.175.515-.365.606" transform="translate(-129.925 -93.107)" fill="#e5e5e5"/>
        <path id="Path_12" data-name="Path 12" d="M175.328,146.678a1.791,1.791,0,0,1-.157.675c-.122.139-.122.278-.226.555a2.165,2.165,0,0,1-.8.831,1.322,1.322,0,0,1-.713.156,6.9,6.9,0,0,1-1.741.311,8.792,8.792,0,0,1-2.124-.121,1.644,1.644,0,0,1-.914-.571c-.043-.087-.1-.138.322-.138a6.219,6.219,0,0,0,1.584-.159,1,1,0,0,1,.923-.153c.47.1.592.087.9-.156s.458-.416.8-.33.676.052.763-.259a.526.526,0,0,1,.609-.381.726.726,0,0,0,.575-.26c.122-.122.2-.087.192,0" transform="translate(-114.699 -99.718)" fill="#e5e5e5"/>
        <path id="Path_13" data-name="Path 13" d="M169.742,131.967a6.858,6.858,0,0,0,.731-.242,4.2,4.2,0,0,1,.8-.122c.052,0,.192-.225-.452-.381a2.84,2.84,0,0,0-1.393,0,5.51,5.51,0,0,0-1.1.328c-.244.122-.522.641-.679.867s-.731.69-.818,1.055a1.523,1.523,0,0,0,.278,1.37c.383.416.575.381,1.1.433a2.226,2.226,0,0,0,1.288-.225c.087-.121.035-.191-.139-.173a2.093,2.093,0,0,1-1.1-.451.92.92,0,0,1-.226-1.039A3.384,3.384,0,0,1,169,132.3a3.207,3.207,0,0,1,.745-.329" transform="translate(-113.448 -89.199)" fill="#e5e5e5"/>
        <path id="Path_14" data-name="Path 14" d="M170.994,143.139s-.122.312.313.762.766.555,1.114.45.592.04.887.037a.664.664,0,0,0,.592-.418c.139-.243.5-.069.627-.069a.745.745,0,0,0,.644-.6c-.052-.528.035-.573,0-.793s.018-.6-.244-.757a4.67,4.67,0,0,0-.888.433,3.248,3.248,0,0,1-.835.606,2.66,2.66,0,0,1-1.3.173c-.39-.1-.936-.152-.913.173" transform="translate(-116.301 -96.422)" fill="#e5e5e5"/>
        <path id="Path_15" data-name="Path 15" d="M178.246,136.2a1.705,1.705,0,0,1,.1.831c-.1.242-.29.554.029.589s1.295-.295,1.294-1.074a4.448,4.448,0,0,0-.314-1.666c-.1-.222-.184-.725-.422-.915a1.31,1.31,0,0,0-.736-.364c-.286-.018-1.191-.018-1.487,0a5,5,0,0,0-1.114.5c-.244.1-.662.07-.61.243s.47.208.592.295.418.409.54.239.5-.742.87-.742a1.086,1.086,0,0,1,.914.415c.113.243.252,1.34.34,1.646" transform="translate(-119.028 -90.868)" fill="#e5e5e5"/>
        <path id="Path_16" data-name="Path 16" d="M177.184,137.019a6.782,6.782,0,0,1-.615,1.247,1.4,1.4,0,0,1-.851.45,3.893,3.893,0,0,1-1.066-.225c-.169-.052-.274-.294.074-.485a2.036,2.036,0,0,1,.94-.4c.383-.018.587-.728.9-.762s.695-.025.615.173" transform="translate(-118.694 -93.074)" fill="#e5e5e5"/>
        <path id="Path_17" data-name="Path 17" d="M173.839,137.6a4.006,4.006,0,0,0-.863.532c-.043.127-.217.269-.356-.036s-.07-.391.209-.617a.885.885,0,0,1,.592-.173c.122-.035.632.184.418.294" transform="translate(-117.371 -93.394)" fill="#e5e5e5"/>
        <path id="Path_18" data-name="Path 18" d="M22.372,102.875a1.669,1.669,0,0,0,.416,2.188,2.008,2.008,0,0,0,2.7-.384c.535-.5,1.07-1.568.416-3.312s-3.269-2.72-5.467-2.128a6.6,6.6,0,0,0-4.635,6.3c.208,3.84,1.872,5.711,4.338,7.751a14.307,14.307,0,0,0,3.358,1.646c.891.3,5.4.879,7.844-.384,0,.177-.417.491-.417.491a11.79,11.79,0,0,1-3.3.623,11.985,11.985,0,0,1-7.034-1.676,9.788,9.788,0,0,1-5.229-9.579,6.73,6.73,0,0,1,5.08-6.149,6.151,6.151,0,0,1,4,.181,5.226,5.226,0,0,1,2.618,2.22,4.638,4.638,0,0,1-.846,5.075,3.512,3.512,0,0,1-1.256.721c-1.823.559-3.738-.364-3.832-2.374a1.394,1.394,0,0,1,1.07-1.626c.267-.029.308.112.178.414" transform="translate(-10.441 -66.672)" fill="#e5e5e5"/>
        <path id="Path_19" data-name="Path 19" d="M28.82,118.53a11.138,11.138,0,0,1-6.477-2.433,8.049,8.049,0,0,1-3.536-7.746,5.6,5.6,0,0,1,4.13-4.671,3.678,3.678,0,0,1,3.15.65s.624.473.743.236-.059-.605-.475-.982-3.8-2.329-6.745,1.278-.535,8.159-.535,8.159a11.416,11.416,0,0,0,9.745,5.507" transform="translate(-12.344 -69.871)" fill="#e5e5e5"/>
        <path id="Path_20" data-name="Path 20" d="M9.939,43.432l3.762,9h.345l3.585-8.739q.871-2.155,2.209-2.154v-.34H16.3v.321q1.087,0,1.087.784a2.138,2.138,0,0,1-.176.766l-2.822,6.906-2.974-7.152a1.425,1.425,0,0,1-.135-.558q0-.745,1.064-.746v-.321H7.928v.321a1.722,1.722,0,0,1,1.1.345,4.7,4.7,0,0,1,.912,1.572m21.909,8.523a1.3,1.3,0,0,1-1.077-.383,2.314,2.314,0,0,1-.3-1.376V43.283a2.337,2.337,0,0,1,.3-1.381,1.291,1.291,0,0,1,1.077-.387v-.321H27.477v.321a1.31,1.31,0,0,1,1.093.373,2.43,2.43,0,0,1,.285,1.395V50.2a2.375,2.375,0,0,1-.29,1.38,1.3,1.3,0,0,1-1.088.379v.321h4.371Zm12.208,0q-.96-.018-.96-.72a4.094,4.094,0,0,1,.311-1.221l.515-1.468h4.6l.74,2.32a1.173,1.173,0,0,1,.093.426q0,.663-1.045.663v.321H52.59v-.321a1.869,1.869,0,0,1-1.084-.246,2.409,2.409,0,0,1-.648-1.089l-3.318-9.55H46.29l-3.569,9.141a3.463,3.463,0,0,1-.757,1.337,1.942,1.942,0,0,1-1.047.406v.321h3.138Zm2.317-9.543,1.942,5.506H44.131Zm24.021,5.483h-4.92v.321h.466a1.205,1.205,0,0,1,1.041.407,2.547,2.547,0,0,1,.295,1.429v.784q0,1.185-2.04,1.184a4.579,4.579,0,0,1-3.578-1.607,5.87,5.87,0,0,1-1.424-4.043,5.288,5.288,0,0,1,1.232-3.623,4.014,4.014,0,0,1,3.159-1.4,4.486,4.486,0,0,1,2.678.817,3.168,3.168,0,0,1,1.352,2.177H69V41.07h-.383a.672.672,0,0,1-.684.369,4.8,4.8,0,0,1-1.14-.2,8.223,8.223,0,0,0-2.165-.321,6.4,6.4,0,0,0-3.133.812,5.909,5.909,0,0,0-3.123,5.32,4.867,4.867,0,0,0,1.88,3.987,8.164,8.164,0,0,0,5.246,1.511q.642,0,1.807-.084a11.571,11.571,0,0,0,1.59-.189V49.712a1.575,1.575,0,0,1,.347-1.159,1.623,1.623,0,0,1,1.155-.337ZM79,51.572a1.29,1.29,0,0,1-1.1.383v.321h8.125l.35-2.487h-.362c-.228.46-.233,1.21-.433,1.415a1.553,1.553,0,0,1-.736.421,2.046,2.046,0,0,1-.946.113H81.776a1.077,1.077,0,0,1-.689-.17.732.732,0,0,1-.2-.586V47.014h1.968a2.633,2.633,0,0,1,1.222.179,1.543,1.543,0,0,1,.476.888h.363V45.387h-.363a1.507,1.507,0,0,1-.368.861,1.453,1.453,0,0,1-.948.227H80.884V41.732h2.664a2.851,2.851,0,0,1,1.507.259,1.82,1.82,0,0,1,.533,1.054h.228V41.194H77.693v.321a1.83,1.83,0,0,1,1.3.379,2.4,2.4,0,0,1,.29,1.389v6.932A2.4,2.4,0,0,1,79,51.572M14.715,58.05a.88.88,0,0,0-.486.13.949.949,0,0,0-.211.2V56.616l-.809.111v.064a.363.363,0,0,1,.316.129.741.741,0,0,1,.094.426v3.114h.106c.069-.146.148-.22.238-.22a.3.3,0,0,1,.108.025l.148.062a1.182,1.182,0,0,0,.426.068,1.1,1.1,0,0,0,.785-.289,1.182,1.182,0,0,0,.354-.907,1.108,1.108,0,0,0-.369-.891,1.037,1.037,0,0,0-.7-.257m.4,1.979a.624.624,0,0,1-.531.308.506.506,0,0,1-.272-.075.459.459,0,0,1-.18-.2,1.288,1.288,0,0,1-.082-.348,3.917,3.917,0,0,1-.032-.522,1.983,1.983,0,0,1,.095-.721.563.563,0,0,1,.194-.246.481.481,0,0,1,.285-.094.5.5,0,0,1,.248.068.763.763,0,0,1,.221.2,1.128,1.128,0,0,1,.194.382,1.6,1.6,0,0,1,.069.473,1.366,1.366,0,0,1-.209.783M19.642,58.9a.821.821,0,0,0-.193-.559.812.812,0,0,0-.3-.219,1,1,0,0,0-.391-.076,1.1,1.1,0,0,0-.706.247,1.135,1.135,0,0,0-.426.937,1.194,1.194,0,0,0,.225.738,1,1,0,0,0,.394.319,1.375,1.375,0,0,0,.558.1,1.039,1.039,0,0,0,.6-.157.746.746,0,0,0,.295-.469l-.056-.02a.753.753,0,0,1-.163.3.584.584,0,0,1-.212.132.76.76,0,0,1-.27.047.833.833,0,0,1-.367-.084.847.847,0,0,1-.294-.234,1.092,1.092,0,0,1-.183-.367,1.531,1.531,0,0,1-.067-.451c0-.039,0-.1.011-.188Zm-1.332-.6a.51.51,0,0,1,.4-.2.462.462,0,0,1,.252.076.553.553,0,0,1,.19.206,1.013,1.013,0,0,1,.1.41H18.109a.876.876,0,0,1,.2-.495m4.413.776a.74.74,0,0,1-.184.095q-.11.04-.34.1a1.7,1.7,0,0,0-.3.1.642.642,0,0,0-.182.131.519.519,0,0,0-.14.369.467.467,0,0,0,.171.38.709.709,0,0,0,.462.141.809.809,0,0,0,.4-.1,1.778,1.778,0,0,0,.267-.21.691.691,0,0,0,.17.213.506.506,0,0,0,.312.093.409.409,0,0,0,.436-.279l-.045-.027a.448.448,0,0,1-.109.117.245.245,0,0,1-.128.029.21.21,0,0,1-.216-.188,1.745,1.745,0,0,1-.022-.34v-.982a1.209,1.209,0,0,0-.021-.269.419.419,0,0,0-.215-.255,1.194,1.194,0,0,0-.3-.109,1.454,1.454,0,0,0-.341-.043,1.5,1.5,0,0,0-.3.031,1.11,1.11,0,0,0-.256.079c-.128.061-.191.138-.191.228a.2.2,0,0,0,.06.15.209.209,0,0,0,.151.06.19.19,0,0,0,.19-.126l.066-.153a.34.34,0,0,1,.32-.211.4.4,0,0,1,.173.04.4.4,0,0,1,.136.106.719.719,0,0,1,.116.455.643.643,0,0,1-.032.227.317.317,0,0,1-.116.145m.154-.038v.443A1.288,1.288,0,0,1,22.8,60a.5.5,0,0,1-.173.216.415.415,0,0,1-.244.081.3.3,0,0,1-.244-.114.438.438,0,0,1-.1-.29.555.555,0,0,1,.124-.358.71.71,0,0,1,.134-.127,2.51,2.51,0,0,1,.266-.156,1.87,1.87,0,0,0,.314-.211M27.219,60.4l.727-.1v-.056a.454.454,0,0,1-.183-.041.3.3,0,0,1-.111-.107.471.471,0,0,1-.057-.179,3.417,3.417,0,0,1-.014-.382V58.091H26.8v.058a.546.546,0,0,1,.275.106.281.281,0,0,1,.081.141,1.206,1.206,0,0,1,.02.261l0,.2v.52a2.764,2.764,0,0,1-.025.445.572.572,0,0,1-.1.239.5.5,0,0,1-.2.159.666.666,0,0,1-.277.059.552.552,0,0,1-.243-.052.4.4,0,0,1-.166-.142.6.6,0,0,1-.072-.224,3.246,3.246,0,0,1-.02-.421V58.091H25.3v.058a.561.561,0,0,1,.275.106.3.3,0,0,1,.079.141,1.153,1.153,0,0,1,.021.261l0,.2v.923a.548.548,0,0,0,.2.451.825.825,0,0,0,.531.162,1.068,1.068,0,0,0,.783-.332,1.6,1.6,0,0,0,.034.332m2.969-3-.027.088a1.387,1.387,0,0,1-.1.251,1.076,1.076,0,0,1-.14.2.74.74,0,0,1-.318.215v.043h.283V59.8a1.481,1.481,0,0,0,.024.321.29.29,0,0,0,.1.152.686.686,0,0,0,.454.122.881.881,0,0,0,.393-.077.545.545,0,0,0,.245-.237l-.04-.034a.688.688,0,0,1-.174.179.37.37,0,0,1-.2.049.427.427,0,0,1-.177-.037.336.336,0,0,1-.132-.1.647.647,0,0,1-.1-.4V58.192h.672v-.1h-.672V57.4Zm2.492.914a2.557,2.557,0,0,1,.111.241l.079.191.547,1.323a1.107,1.107,0,0,1,.1.342.576.576,0,0,1-.053.2l-.082.2c-.069.165-.157.248-.266.248a.191.191,0,0,1-.059-.009c-.017-.005-.054-.019-.112-.042a.44.44,0,0,0-.158-.037.2.2,0,0,0-.132.041.135.135,0,0,0-.05.109.163.163,0,0,0,.086.143.417.417,0,0,0,.226.054.455.455,0,0,0,.362-.168,1.911,1.911,0,0,0,.222-.435l.767-1.869a3.824,3.824,0,0,1,.243-.523.377.377,0,0,1,.1-.109.639.639,0,0,1,.168-.067v-.058h-.756v.058a.309.309,0,0,1,.193.087.266.266,0,0,1,.067.19,1.659,1.659,0,0,1-.143.507l-.386.957-.442-1.138a1.253,1.253,0,0,1-.108-.379.192.192,0,0,1,.1-.18.477.477,0,0,1,.156-.043v-.058H32.443v.058a.313.313,0,0,1,.158.061.326.326,0,0,1,.08.1m6.826.082a1.177,1.177,0,0,1,.02.261l0,.2v.923a.548.548,0,0,0,.2.451.825.825,0,0,0,.531.162,1.065,1.065,0,0,0,.782-.332,1.6,1.6,0,0,0,.035.332l.727-.1v-.056a.45.45,0,0,1-.182-.041.3.3,0,0,1-.112-.107.465.465,0,0,1-.056-.179,3.417,3.417,0,0,1-.014-.382V58.091h-.777v.058a.544.544,0,0,1,.274.106.281.281,0,0,1,.081.141,1.207,1.207,0,0,1,.02.261l0,.2v.52a2.753,2.753,0,0,1-.025.445.567.567,0,0,1-.1.239.5.5,0,0,1-.2.159.665.665,0,0,1-.277.059.554.554,0,0,1-.243-.052.4.4,0,0,1-.166-.142.6.6,0,0,1-.072-.224,3.259,3.259,0,0,1-.02-.421V58.091h-.777v.058a.56.56,0,0,1,.275.106.3.3,0,0,1,.08.141m4.723-.382-.772.109v.066a.369.369,0,0,1,.316.128.741.741,0,0,1,.094.427v1.834c0,.154,0,.272-.012.356a.568.568,0,0,1-.041.185.26.26,0,0,1-.111.131.716.716,0,0,1-.227.058v.056h1.169v-.056a.533.533,0,0,1-.273-.106.3.3,0,0,1-.082-.142,1.2,1.2,0,0,1-.021-.264v-.183l0-.487a1.388,1.388,0,0,0,.334.213.919.919,0,0,0,.342.058,1.066,1.066,0,0,0,.715-.257,1.053,1.053,0,0,0,.3-.412,1.381,1.381,0,0,0,.1-.538,1.308,1.308,0,0,0-.1-.511A1.01,1.01,0,0,0,45,58.05a1.163,1.163,0,0,0-.372.057,1.545,1.545,0,0,0-.367.19v-.05a1.044,1.044,0,0,0-.029-.234m.068.689a.842.842,0,0,1,.113-.317.549.549,0,0,1,.461-.258.581.581,0,0,1,.482.271,1.193,1.193,0,0,1,.18.376,1.564,1.564,0,0,1,.065.447,1.511,1.511,0,0,1-.068.454,1.176,1.176,0,0,1-.195.377.608.608,0,0,1-.487.265.56.56,0,0,1-.437-.224.722.722,0,0,1-.113-.3,3.57,3.57,0,0,1-.031-.553A3.5,3.5,0,0,1,44.3,58.7m7.172-.321v-.043a1.215,1.215,0,0,0-.037-.288l-.724.1V58.2a.483.483,0,0,1,.182.04A.281.281,0,0,1,51,58.35a.405.405,0,0,1,.058.178,3.66,3.66,0,0,1,.013.382v.653c0,.155,0,.273-.012.355a.6.6,0,0,1-.041.185.281.281,0,0,1-.111.13.708.708,0,0,1-.227.06v.055h1.168v-.055a.542.542,0,0,1-.272-.11.272.272,0,0,1-.082-.138,1.186,1.186,0,0,1-.021-.264l0-.2v-.52a2.7,2.7,0,0,1,.025-.445.562.562,0,0,1,.1-.239.5.5,0,0,1,.2-.16.649.649,0,0,1,.275-.058.585.585,0,0,1,.251.052.392.392,0,0,1,.174.144.522.522,0,0,1,.075.217A3.29,3.29,0,0,1,52.6,59v.563c0,.153,0,.272-.012.354a.578.578,0,0,1-.041.184.274.274,0,0,1-.111.132.718.718,0,0,1-.228.06v.055h1.169v-.055a.54.54,0,0,1-.272-.11.275.275,0,0,1-.082-.138A1.211,1.211,0,0,1,53,59.78V58.656a.529.529,0,0,0-.2-.446.865.865,0,0,0-.545-.159,1.061,1.061,0,0,0-.78.331m4.712,1.911a.552.552,0,0,1-.272-.109.277.277,0,0,1-.082-.139,1.182,1.182,0,0,1-.021-.264l0-.2V58.05l-.761.1V58.2a.48.48,0,0,1,.182.04.283.283,0,0,1,.109.108.418.418,0,0,1,.058.178c.008.074.013.2.013.382v.653c0,.155,0,.273-.012.355a.592.592,0,0,1-.041.185.279.279,0,0,1-.111.13.7.7,0,0,1-.227.06v.055h1.169ZM55.594,57.1a.236.236,0,0,0,.171-.067.238.238,0,0,0,0-.334.25.25,0,0,0-.34,0,.237.237,0,0,0,0,.334.234.234,0,0,0,.171.067m4.033,4.023a.625.625,0,0,0,.27-.539.572.572,0,0,0-.233-.487.844.844,0,0,0-.278-.129,1.644,1.644,0,0,0-.389-.04H58.56c-.221,0-.331-.058-.331-.17,0-.13.13-.2.389-.218.189-.012.3-.021.337-.027a.939.939,0,0,0,.332-.134.629.629,0,0,0,.308-.55.851.851,0,0,0-.216-.542.312.312,0,0,1,.205-.1.173.173,0,0,1,.143.063l.061.08a.2.2,0,0,0,.154.091.118.118,0,0,0,.093-.043.14.14,0,0,0,.038-.1.205.205,0,0,0-.1-.17.358.358,0,0,0-.209-.056.547.547,0,0,0-.216.042.952.952,0,0,0-.224.139.922.922,0,0,0-.518-.181.779.779,0,0,0-.326.07.808.808,0,0,0-.275.192.676.676,0,0,0-.2.477.633.633,0,0,0,.127.383.9.9,0,0,0,.357.281,1.355,1.355,0,0,0-.328.114.335.335,0,0,0-.174.3.378.378,0,0,0,.164.306.662.662,0,0,0,.417.123h.421a.7.7,0,0,1,.415.1.348.348,0,0,1,.145.3.466.466,0,0,1-.218.4,1.154,1.154,0,0,1-1.12.014A.408.408,0,0,1,58,60.76a.341.341,0,0,1,.07-.221.224.224,0,0,1,.181-.084.2.2,0,0,1,.111.028.314.314,0,0,1,.09.1l.047-.014v-.029a.248.248,0,0,0-.075-.188.27.27,0,0,0-.195-.073.365.365,0,0,0-.277.124.428.428,0,0,0-.114.3.508.508,0,0,0,.153.376,1.159,1.159,0,0,0,.818.234,1.389,1.389,0,0,0,.815-.2M58.387,58.81a1.122,1.122,0,0,1,.035-.276.807.807,0,0,1,.092-.234.347.347,0,0,1,.306-.191.3.3,0,0,1,.258.146.9.9,0,0,1,.137.524.985.985,0,0,1-.105.5.328.328,0,0,1-.3.178.356.356,0,0,1-.307-.18.828.828,0,0,1-.12-.465m3.577,1.107a.6.6,0,0,1-.041.184.277.277,0,0,1-.112.132.7.7,0,0,1-.227.06v.055h1.168v-.055a.542.542,0,0,1-.272-.11.277.277,0,0,1-.082-.138,1.191,1.191,0,0,1-.021-.264l0-.2V59.16q0-1.014.638-1.014a.477.477,0,0,1,.38.156.5.5,0,0,1,.1.193,1.246,1.246,0,0,1,.029.3v.84a2.194,2.194,0,0,1-.019.336.415.415,0,0,1-.066.18.27.27,0,0,1-.107.091.816.816,0,0,1-.2.046v.055H64.3v-.055a.544.544,0,0,1-.272-.11.27.27,0,0,1-.082-.138,1.167,1.167,0,0,1-.021-.264l0-.2V58.8a1.122,1.122,0,0,0-.054-.4.485.485,0,0,0-.2-.227,1.091,1.091,0,0,0-.954-.029.7.7,0,0,0-.172.111,1.573,1.573,0,0,0-.164.178v-1.82l-.761.1v.058a.521.521,0,0,1,.182.039.283.283,0,0,1,.108.107.422.422,0,0,1,.059.18q.013.112.013.382v2.081c0,.156,0,.276-.012.358m5.259.31a.37.37,0,0,1-.2.049.428.428,0,0,1-.177-.037.338.338,0,0,1-.132-.1.647.647,0,0,1-.095-.4V58.192h.672v-.1h-.672V57.4h-.1l-.027.088a1.437,1.437,0,0,1-.1.251,1.081,1.081,0,0,1-.141.2.739.739,0,0,1-.318.215v.043h.283V59.8a1.434,1.434,0,0,0,.024.321.289.289,0,0,0,.1.152.687.687,0,0,0,.455.122.883.883,0,0,0,.392-.077.546.546,0,0,0,.244-.237l-.039-.034a.683.683,0,0,1-.174.179m4.879-2.88v3.114h.106c.069-.146.148-.22.238-.22a.3.3,0,0,1,.108.025l.148.062a1.181,1.181,0,0,0,.426.068,1.1,1.1,0,0,0,.785-.289,1.182,1.182,0,0,0,.354-.907,1.109,1.109,0,0,0-.37-.891,1.036,1.036,0,0,0-.7-.257.88.88,0,0,0-.486.13.956.956,0,0,0-.211.2V56.616l-.809.111v.064a.363.363,0,0,1,.316.129.743.743,0,0,1,.094.426m.494,1.12a.562.562,0,0,1,.2-.246.481.481,0,0,1,.284-.094.5.5,0,0,1,.247.068.757.757,0,0,1,.222.2,1.129,1.129,0,0,1,.195.382,1.613,1.613,0,0,1,.068.473,1.361,1.361,0,0,1-.209.783.623.623,0,0,1-.531.308.508.508,0,0,1-.272-.075.462.462,0,0,1-.18-.2,1.3,1.3,0,0,1-.082-.348,3.917,3.917,0,0,1-.032-.522,1.992,1.992,0,0,1,.095-.721m4.89-.417a.833.833,0,0,0-.5.157.753.753,0,0,0-.214.251,2.251,2.251,0,0,0-.045-.408l-.682.1V58.2a.482.482,0,0,1,.183.04.285.285,0,0,1,.109.108.414.414,0,0,1,.058.178,3.785,3.785,0,0,1,.013.382v.653c0,.155,0,.273-.012.355a.592.592,0,0,1-.041.185.279.279,0,0,1-.111.13.705.705,0,0,1-.227.06v.055h1.169v-.055a.542.542,0,0,1-.272-.11.274.274,0,0,1-.082-.138,1.191,1.191,0,0,1-.021-.264l0-.2v-.5a1.685,1.685,0,0,1,.1-.65c.067-.155.16-.234.28-.234a.305.305,0,0,1,.23.1l.082.089a.2.2,0,0,0,.156.075.173.173,0,0,0,.126-.048.164.164,0,0,0,.049-.122.212.212,0,0,0-.082-.169.394.394,0,0,0-.262-.077m3.051,2.25a1.763,1.763,0,0,0,.267-.21.7.7,0,0,0,.17.213.506.506,0,0,0,.312.093.41.41,0,0,0,.436-.279l-.045-.027a.459.459,0,0,1-.109.117.247.247,0,0,1-.129.029.21.21,0,0,1-.216-.188,1.745,1.745,0,0,1-.022-.34v-.982a1.215,1.215,0,0,0-.02-.269.422.422,0,0,0-.215-.255,1.191,1.191,0,0,0-.3-.109,1.461,1.461,0,0,0-.342-.043,1.5,1.5,0,0,0-.3.031,1.11,1.11,0,0,0-.256.079c-.128.061-.191.138-.191.228a.2.2,0,0,0,.06.15.209.209,0,0,0,.151.06.191.191,0,0,0,.191-.126l.066-.153a.341.341,0,0,1,.32-.211.4.4,0,0,1,.173.04.4.4,0,0,1,.136.106.719.719,0,0,1,.116.455.652.652,0,0,1-.032.227.319.319,0,0,1-.116.145.742.742,0,0,1-.184.095q-.109.04-.34.1a1.684,1.684,0,0,0-.3.1.635.635,0,0,0-.183.131.52.52,0,0,0-.14.369.466.466,0,0,0,.17.38.709.709,0,0,0,.462.141.809.809,0,0,0,.4-.1m-.572-.4a.558.558,0,0,1,.124-.358.72.72,0,0,1,.134-.127,2.5,2.5,0,0,1,.266-.156,1.88,1.88,0,0,0,.314-.211v.443a1.288,1.288,0,0,1-.082.516.5.5,0,0,1-.173.216.414.414,0,0,1-.243.081.3.3,0,0,1-.244-.114.436.436,0,0,1-.1-.29M13.5,71.741c0,.12.074.18.224.18.225,0,.338-.078.338-.235l-.027-1.52v-.542c.143-.1.214-.178.214-.239,0-.043-.053-.115-.16-.216-.171-.151-.287-.226-.348-.226q-.069,0-.325.313H11.835a9.893,9.893,0,0,0,.918-1.142c.225-.062.339-.13.339-.207,0-.06-.063-.155-.188-.281-.183-.172-.3-.258-.347-.258s-.171.111-.357.331H10.751a5.955,5.955,0,0,0,.27-.617c.244-.037.366-.1.366-.2q0-.12-.851-.336a4.083,4.083,0,0,1-.224.838,7.7,7.7,0,0,1-1.536,2.5.033.033,0,0,0-.009.024.061.061,0,0,0,.068.069.055.055,0,0,0,.028-.009,6.719,6.719,0,0,0,.594-.479v.732L9.43,71.741c0,.127.078.189.233.189q.329,0,.329-.226v-.162h1.143a4.744,4.744,0,0,1-.7,1.593,5.776,5.776,0,0,1-2.158,1.828.048.048,0,0,0-.022.045c0,.052.018.078.054.078H8.32a5.306,5.306,0,0,0,2.527-1.735,4.6,4.6,0,0,0,.841-1.81H13.5Zm-2.313-.432h-1.2V69.481h1.367a13.317,13.317,0,0,1-.169,1.828m.412-2.053H10.116c-.07-.044-.161-.1-.274-.161a6.306,6.306,0,0,0,.795-1.16H12.21a8.989,8.989,0,0,1-.608,1.321m.142,2.053a12.97,12.97,0,0,0,.187-1.828H13.5v1.828Zm2.706,2.946a.234.234,0,0,1-.142-.207q0-.188.064-.829c0-.024-.012-.042-.046-.051s-.066,0-.078.033a2.661,2.661,0,0,1-.448,1.1,1.669,1.669,0,0,1-.877.141,1,1,0,0,1-.462-.068q-.1-.06-.1-.3V72.45c.207-.1.311-.174.311-.235q0-.156-.873-.234c.025.236.037.623.037,1.159l-.009,1.018a.782.782,0,0,0,.187.589,1.379,1.379,0,0,0,.9.212,5.091,5.091,0,0,0,1.225-.1q.43-.124.43-.386a.221.221,0,0,0-.119-.216M8.7,73.233l-.028-3.614V67.888c.155-.1.233-.178.233-.239s-.051-.131-.151-.216c-.183-.157-.3-.234-.357-.234-.036,0-.141.1-.315.3H7.1a5.292,5.292,0,0,0-.645-.323q.046.6.046,2.632l-.046,3.8c0,.12.077.18.233.18.231,0,.347-.072.347-.216v-.53H8.142v.244c0,.119.078.18.233.18q.33,0,.329-.235m-.562-.424H7.036V70.346H8.142Zm0-2.7H7.036V67.737H8.142Zm16.542.065a2.608,2.608,0,0,0-.553-.406,2.93,2.93,0,0,0-.526.539H20.085q.242-.488.525-1.206c.244-.053.366-.118.366-.2s-.291-.193-.873-.368a5.425,5.425,0,0,1-.288.925q-.228.543-.374.847H17.585a3.776,3.776,0,0,1-.731-.074l.1.355a4.166,4.166,0,0,1,.635-.046h1.732a16.233,16.233,0,0,1-1.12,1.887.463.463,0,0,0-.114.226c0,.04.043.082.128.124a.547.547,0,0,0,.256.073.212.212,0,0,0,.128-.032.872.872,0,0,0,.151-.184q.237-.364.293-.437a16.088,16.088,0,0,1,1.814.763A7,7,0,0,1,16.867,74.8c-.021.006-.032.026-.032.059,0,.056.018.08.055.074a10.514,10.514,0,0,0,2.468-.479,5.09,5.09,0,0,0,1.988-1.215,7.639,7.639,0,0,1,1.687,1.243,4.689,4.689,0,0,0,.393.359.407.407,0,0,0,.237.091.193.193,0,0,0,.156-.078.394.394,0,0,0,.087-.271q0-.354-.553-.8a7.286,7.286,0,0,0-1.668-.926,6.234,6.234,0,0,0,1.134-2.319h1.974c.082,0,.123-.03.123-.092s-.077-.141-.233-.276m-3.551,2.471a16.1,16.1,0,0,0-2-.6q.448-.738.842-1.5h2.194a5.818,5.818,0,0,1-1.033,2.1m3.071-5q-.078,0-.393.35H21.077v-.8c.219-.1.329-.182.329-.253s-.046-.1-.137-.138a4.869,4.869,0,0,0-.828-.129,6.351,6.351,0,0,1,.046.719V68H17.9a2.86,2.86,0,0,0-.046-.469c-.006-.027-.027-.041-.064-.041s-.051.014-.051.041a1.62,1.62,0,0,1-.169.659,1.374,1.374,0,0,1-.535.506.422.422,0,0,0-.261.359.35.35,0,0,0,.082.234.308.308,0,0,0,.247.115.6.6,0,0,0,.48-.281,1.638,1.638,0,0,0,.306-.887h5.951a6.9,6.9,0,0,1-.443,1.008.049.049,0,0,0-.005.023c0,.036.021.056.064.056a.05.05,0,0,0,.037-.014,7.841,7.841,0,0,0,.75-.668.508.508,0,0,1,.158-.117.711.711,0,0,1,.226-.025c.2,0,.3-.057.3-.17,0-.056-.078-.159-.233-.309q-.4-.367-.489-.368m6.719-.92a6.343,6.343,0,0,1,.046.811v1.086H28.441a4.985,4.985,0,0,1-.741-.065l.1.354a3.632,3.632,0,0,1,.654-.055h6.486c.088,0,.132-.028.132-.083s-.075-.156-.224-.285a2.252,2.252,0,0,0-.535-.4q-.083,0-.526.53H31.576V67.249q.338-.148.338-.253c0-.055-.047-.1-.142-.133a4.825,4.825,0,0,0-.85-.134m-1.915,2.808c-.046,0-.068.017-.068.051V69.6a8.955,8.955,0,0,1,.731,3.09,1.1,1.1,0,0,0,.073.423.239.239,0,0,0,.233.142.317.317,0,0,0,.26-.138.738.738,0,0,0,.133-.465,3.877,3.877,0,0,0-.3-1.381,6.289,6.289,0,0,0-1.014-1.722.061.061,0,0,0-.046-.017M35.3,74.024a2.333,2.333,0,0,0-.544-.432q-.087,0-.544.585H31.768a24.53,24.53,0,0,0,1.842-4.128c.244-.035.366-.1.366-.2s-.331-.267-.992-.46a9.045,9.045,0,0,1-.242,1.179A25.312,25.312,0,0,1,31.5,74.176H27.947a5.106,5.106,0,0,1-.777-.056l.091.354a3.885,3.885,0,0,1,.7-.063h7.459c.088,0,.133-.029.133-.083s-.084-.147-.252-.3m10.915-3.13c0-.058-.05-.13-.151-.216a1.545,1.545,0,0,0-.438-.312q-.078,0-.4.377H41.655a3.172,3.172,0,0,1-.608-.056l.091.345a2.7,2.7,0,0,1,.517-.055H46.1c.076,0,.114-.027.114-.083m-3.835,2.357c-.04,0-.059.015-.059.046a.029.029,0,0,0,.009.019,2.08,2.08,0,0,1,.3.87c.025.174.105.263.242.263a.249.249,0,0,0,.187-.083.39.39,0,0,0,.091-.272q0-.465-.749-.838a.055.055,0,0,0-.023,0M46.166,74.5a1.782,1.782,0,0,0-.439-.322q-.078,0-.425.4H44.1a4.434,4.434,0,0,0,.677-.829c.216-.015.324-.063.324-.143s-.236-.2-.709-.377a3.281,3.281,0,0,1-.133.5,6.279,6.279,0,0,1-.374.847H41.513a4.3,4.3,0,0,1-.618-.055l.092.345a2.61,2.61,0,0,1,.535-.055h4.689c.083,0,.123-.03.123-.091s-.057-.121-.169-.217m-.484-2.753c0-.052-.047-.117-.142-.2a1.019,1.019,0,0,0-.329-.217c-.037,0-.136.084-.3.254H42.308a6.569,6.569,0,0,0-.6-.29,8.549,8.549,0,0,1,.046.98l-.018.884a.206.206,0,0,0,.036.143.272.272,0,0,0,.169.037c.207,0,.31-.075.31-.225v-.161h2.715v.115c0,.116.069.175.206.175q.32,0,.32-.226l-.028-.846v-.208c.143-.094.215-.168.215-.216m-.713.972H42.253v-.9h2.715ZM40.64,70.388q-.251-.231-.315-.231c-.045,0-.141.09-.288.267H38.9a3.484,3.484,0,0,0-.562-.3q.027.492.028,2.168l-.028,2.624c0,.131.072.2.215.2.213,0,.32-.079.32-.236l-.009-1.924h1.221v1.377a.12.12,0,0,1-.133.138,4.739,4.739,0,0,1-.626-.047c-.028,0-.041.016-.041.055s.013.063.041.07c.329.074.51.211.544.414a.121.121,0,0,0,.132.1.691.691,0,0,0,.4-.133.605.605,0,0,0,.187-.515l-.019-2.551v-1.05c.15-.095.224-.164.224-.207s-.051-.123-.151-.216m-.557,2.329H38.862v-.939h1.221Zm0-1.175H38.862v-.884h1.221Zm.7-1.9a2.864,2.864,0,0,1-.265.548.015.015,0,0,0,0,.012c0,.035.02.051.059.051a.034.034,0,0,0,.028-.009,4.353,4.353,0,0,0,.457-.335.365.365,0,0,1,.169-.106c.161-.015.242-.051.242-.111a.508.508,0,0,0-.169-.277q-.224-.233-.288-.233c-.036,0-.119.078-.246.233h-.083V67.34c.137-.082.205-.148.205-.2s-.05-.112-.151-.2q-.224-.2-.288-.2c-.039,0-.126.078-.26.234H38.784q-.169-.092-.539-.253.036.4.036,1.169v1.519h-.187c-.009-.052-.033-.153-.073-.3a.046.046,0,0,0-.05-.037c-.031,0-.046.012-.046.037a1.831,1.831,0,0,1-.059.576,1.2,1.2,0,0,1-.3.492.4.4,0,0,0-.142.3.29.29,0,0,0,.069.2.246.246,0,0,0,.192.087.355.355,0,0,0,.315-.23,1.4,1.4,0,0,0,.133-.662c0-.077,0-.154-.009-.231Zm-.548-.226h-.549V68.368h.549Zm-1.508-2.2h1.508v.925h-.512a3.05,3.05,0,0,0-.5-.262,5.837,5.837,0,0,1,.046.783v.754H38.73Zm2.784.093q.041.409.041,1.32l-.032,1.635c0,.114.072.169.215.169.189,0,.283-.072.283-.216v-.1h3.227c0,.107.068.16.205.16.2,0,.293-.068.293-.207l-.032-1.546v-.512c.152-.091.228-.168.228-.224s-.047-.122-.141-.208c-.171-.156-.278-.235-.32-.235s-.142.088-.288.263h-.75v-.6c.168-.064.252-.128.252-.188,0-.085-.248-.164-.745-.235a8.789,8.789,0,0,1,.046,1.026h-.768V67c.168-.07.251-.133.251-.188q0-.134-.736-.208a9.072,9.072,0,0,1,.036,1.008h-.686a5.374,5.374,0,0,0-.58-.3m2.929.538h.8v.879h-.8Zm0,1.114h.8v.924h-.8Zm-1.216-1.114h.767v.879h-.767Zm0,1.114h.767v.924h-.767Zm-.448.924H42.02v-.924h.759Zm0-1.159H42.02v-.879h.759Zm8.424-.783c.222,0,.334-.123.334-.368a.7.7,0,0,0-.256-.5,2.161,2.161,0,0,0-.877-.469.042.042,0,0,0-.019-.005c-.043,0-.064.02-.064.056a.038.038,0,0,0,.019.031,2.148,2.148,0,0,1,.58,1q.073.253.284.253m5.508,6.375a6.446,6.446,0,0,1-2.3-.455,4.282,4.282,0,0,1-1.9-1.487h3.9c.082,0,.123-.027.123-.083s-.066-.146-.2-.253a2.09,2.09,0,0,0-.544-.377q-.069,0-.466.478H52.4l.01-.028q.055-.267.082-.4c.21-.07.315-.152.315-.244,0-.052-.047-.094-.142-.124s-.352-.072-.773-.133v.1a3.01,3.01,0,0,1-.041.474c-.012.077-.035.2-.068.359h-2.7a4.435,4.435,0,0,1-.759-.065l.083.354a3.587,3.587,0,0,1,.676-.055h2.619a3.1,3.1,0,0,1-.635,1.105,5.5,5.5,0,0,1-2.806,1.45c-.022,0-.032.021-.032.055,0,.07.02.1.059.1a6.023,6.023,0,0,0,2.984-1.115,3.046,3.046,0,0,0,1.052-1.538,4.489,4.489,0,0,0,1.691,1.819,6.03,6.03,0,0,0,1.6.681,1.885,1.885,0,0,0,.457.083.148.148,0,0,0,.16-.115,1.081,1.081,0,0,1,.178-.317.639.639,0,0,1,.3-.161.056.056,0,0,0,.041-.06.036.036,0,0,0-.041-.041M49.439,68.05a3.309,3.309,0,0,1-.732-.078l.091.368a3.31,3.31,0,0,1,.649-.056h2.583v1.091H49.969a3.689,3.689,0,0,1-.718-.074l.092.365a3.063,3.063,0,0,1,.635-.056h2.053v1.174H49.064a4.206,4.206,0,0,1-.777-.065l.091.355a3.937,3.937,0,0,1,.695-.056h7.318c.089,0,.132-.027.132-.082s-.068-.142-.205-.258a2.055,2.055,0,0,0-.508-.36q-.078,0-.475.466H52.611V69.61H55.5c.079,0,.119-.03.119-.092s-.066-.142-.2-.243a2.006,2.006,0,0,0-.484-.332c-.052,0-.2.144-.448.433H52.611V68.284h3.511c.082,0,.123-.031.123-.091s-.072-.141-.215-.257a1.9,1.9,0,0,0-.489-.341q-.069,0-.466.455H53.342a6.273,6.273,0,0,0,.9-.888c.256-.015.384-.066.384-.152s-.274-.236-.823-.46a3.474,3.474,0,0,1-.178.469,6.506,6.506,0,0,1-.562,1.031Zm10.028,1.174H60.2a4.858,4.858,0,0,1-.233,1.233,3.6,3.6,0,0,1-1.1,1.483.042.042,0,0,0-.013.032.069.069,0,0,0,.078.078.064.064,0,0,0,.018,0A3.493,3.493,0,0,0,60.4,70.619a3.992,3.992,0,0,0,.348-1.4H61.9v.414l-.045,1.887c0,.156.087.234.26.234q.366,0,.366-.271l-.036-2.038v-.226h1.376c.083,0,.123-.03.123-.092s-.059-.13-.178-.226a1.515,1.515,0,0,0-.457-.331q-.073,0-.407.414h-.457V67.36h1.124c.079,0,.119-.028.119-.083s-.056-.136-.169-.225a1.624,1.624,0,0,0-.476-.332q-.078,0-.411.405H59.691a4.164,4.164,0,0,1-.686-.054l.1.344a3.35,3.35,0,0,1,.6-.055h.53v.8c0,.211-.006.488-.018.829h-.745a3.727,3.727,0,0,1-.713-.064l.091.354a3.534,3.534,0,0,1,.622-.055m1.316-1.1V67.36H61.9v1.629H60.765c.012-.34.018-.63.018-.865m6.267,6.259a2.006,2.006,0,0,0-.535-.378q-.078,0-.507.5H63.22V72.952h2.866q.118,0,.119-.083c0-.055-.068-.139-.205-.253a1.775,1.775,0,0,0-.5-.359q-.083,0-.48.46h-1.8v-.685q.3-.139.3-.25c0-.049-.043-.088-.128-.115a4.669,4.669,0,0,0-.791-.129c.025.24.037.6.037,1.1v.083H60.431a4.2,4.2,0,0,1-.7-.056l.1.345a3.329,3.329,0,0,1,.617-.055h2.2v1.555h-3.1a4.479,4.479,0,0,1-.731-.064l.1.355a3.561,3.561,0,0,1,.635-.056h7.6c.082,0,.123-.03.123-.091s-.072-.15-.215-.267m-2.157-7.236a4.666,4.666,0,0,0-.755-.119,14.364,14.364,0,0,1,.046,1.444l-.027,1.874c0,.15.084.226.252.226.232,0,.347-.084.347-.254l-.028-1.988v-.819c.193-.086.288-.164.288-.235s-.041-.1-.123-.129m.918,4.084c-.2,0-.5-.015-.9-.043-.03,0-.046.021-.046.065s.012.059.037.069a3.052,3.052,0,0,1,.6.2.377.377,0,0,1,.219.276.233.233,0,0,0,.041.121.169.169,0,0,0,.11.023.643.643,0,0,0,.443-.161.63.63,0,0,0,.252-.507l-.037-2.223v-1.9c.213-.089.32-.167.32-.235s-.045-.1-.137-.128a5.7,5.7,0,0,0-.773-.138q.037.378.037,1.454v2.97c0,.1-.056.157-.169.157M76.662,68.46q-.078,0-.379.341H73.678a6.674,6.674,0,0,1-.224-1.413c.25-.127.375-.216.375-.272,0-.04-.05-.109-.151-.208-.143-.137-.24-.206-.293-.206q-.05,0-.269.271H72.2a3.7,3.7,0,0,1-.722-.065l.1.365a3.474,3.474,0,0,1,.635-.064h1.01a11.163,11.163,0,0,0,.142,1.593h-2.6a6.272,6.272,0,0,0-.741-.378q.046.493.046,2.545,0,1.759-.055,3.849,0,.225.27.225.375,0,.375-.267v-5.74h2.587a7.777,7.777,0,0,1-2.386,3.725.043.043,0,0,0-.013.031c0,.059.026.087.078.087a.029.029,0,0,0,.018,0A6.873,6.873,0,0,0,73.6,69.78a6.636,6.636,0,0,0,1.8,2.78c.115.109.187.162.214.162s.08-.048.128-.142a.573.573,0,0,1,.384-.309.053.053,0,0,0,.05-.056.07.07,0,0,0-.032-.059,6.184,6.184,0,0,1-2.4-3.121h2.624v4.995c0,.12-.057.179-.169.179q-.512,0-1.248-.063c-.03-.007-.046.013-.046.059s.012.059.036.064a3.5,3.5,0,0,1,.814.226.412.412,0,0,1,.265.308c.015.1.06.152.132.152a.973.973,0,0,0,.457-.106.655.655,0,0,0,.393-.64l-.045-3.626V69.224c.168-.108.251-.194.251-.262a.3.3,0,0,0-.133-.208,1.44,1.44,0,0,0-.421-.294m11.592,5.592a7.087,7.087,0,0,1-1.349-.765,6.431,6.431,0,0,1-1.138-1.1,5.093,5.093,0,0,1-.5-.7,11.043,11.043,0,0,0,1.714-1.358h.083c.225,0,.338-.042.338-.124s-.268-.29-.8-.585a3.469,3.469,0,0,1-.448.745,9.318,9.318,0,0,1-.983,1.141,9.674,9.674,0,0,1-.928-2.572h3.83c.085,0,.128-.028.128-.083s-.081-.16-.242-.295a1.97,1.97,0,0,0-.544-.377q-.077,0-.512.52H84.214V67.249c.219-.092.329-.178.329-.258,0-.052-.046-.094-.137-.125a4.718,4.718,0,0,0-.828-.138,5.952,5.952,0,0,1,.046.774v.989H80.616a4.256,4.256,0,0,1-.759-.065l.1.354a4.587,4.587,0,0,1,.663-.055H83.34A9.571,9.571,0,0,1,79.766,72.2a.032.032,0,0,0-.018.032c0,.061.026.092.078.092h.013a9.738,9.738,0,0,0,2.144-1.243v2.7q-.38.115-.841.208a3.625,3.625,0,0,1-.64.087c.122.362.211.606.27.732s.113.193.165.193c.076,0,.138-.117.187-.35A16.446,16.446,0,0,0,84.908,72.9a.037.037,0,0,0,.018-.038c0-.051-.021-.077-.064-.077a.028.028,0,0,0-.014,0q-1.257.524-2.313.847V70.609a7.835,7.835,0,0,0,.983-1.119q.215-.294.5-.764h.018a9.285,9.285,0,0,0,1.284,3.742,6.972,6.972,0,0,0,2.016,2.071.915.915,0,0,0,.357.17.145.145,0,0,0,.137-.114.966.966,0,0,1,.151-.3.44.44,0,0,1,.256-.134.069.069,0,0,0,.05-.07.04.04,0,0,0-.032-.041" transform="translate(-4.391 -27.834)" fill="#b6a453"/>
      </g>
    </g>
  </g>
</svg>
