<svg xmlns="http://www.w3.org/2000/svg" xmlns:xlink="http://www.w3.org/1999/xlink" width="180" height="54" viewBox="0 0 180 54">
  <defs>
    <clipPath id="clip-path">
      <rect id="Rectangle_1" data-name="Rectangle 1" width="85.612" height="54" fill="none"/>
    </clipPath>
    <clipPath id="clip-path-2">
      <rect id="Rectangle_2" data-name="Rectangle 2" width="70" height="53.715" fill="none"/>
    </clipPath>
    <clipPath id="clip-logo">
      <rect width="180" height="54"/>
    </clipPath>
  </defs>
  <g id="logo" clip-path="url(#clip-logo)">
    <rect width="180" height="54" fill="#fff"/>
    <g id="x" transform="translate(1 -0.182)">
      <line id="Line_1" data-name="Line 1" x2="0.14" y2="15.967" transform="translate(102.62 21.182) rotate(45)" fill="none" stroke="#e0cd79" stroke-width="1"/>
      <line id="Line_2" data-name="Line 2" x1="0.14" y2="15.967" transform="translate(102.719 32.472) rotate(135)" fill="none" stroke="#e0cd79" stroke-width="1"/>
    </g>
    <g id="Group_2" data-name="Group 2">
      <g id="Group_1" data-name="Group 1" clip-path="url(#clip-path)">
        <path id="Path_1" data-name="Path 1" d="M85.612.89q0,.736-.863.736h-.524a26.8,26.8,0,0,0-2.774-.184q-7.954,0-18.744,6.9a59.589,59.589,0,0,0-8.786,6.779q-3.484,3.376-13.071,14.2Q29.534,42.148,23.8,46.289A19.049,19.049,0,0,1,20.47,48.5c-.123,0-.185-.057-.185-.169q0-.031.678-.951A69.539,69.539,0,0,0,30.32,30.715q3.9-9.635,3.9-16.08,0-10.371-8.447-10.372A17.039,17.039,0,0,0,18.1,6.534a31.779,31.779,0,0,0-7.923,5.89,32.665,32.665,0,0,0-6.212,8.819,21.175,21.175,0,0,0-2.327,9.1A8.452,8.452,0,0,0,3.7,36.351a7.273,7.273,0,0,0,5.58,2.208q6.844,0,13.318-8.711,4.624-6.228,4.624-11.136A5.29,5.29,0,0,0,26.127,15.2a3.647,3.647,0,0,0-2.944-1.3,4.936,4.936,0,0,0-2.081.476q-1.033.476-1.033.966c0,.122.072.184.216.184h.247c.575-.081.894-.122.956-.122q1.388,0,1.387,1.5a2.169,2.169,0,0,1-.74,1.641,2.452,2.452,0,0,1-1.727.69A1.713,1.713,0,0,1,18.5,17.27a3.552,3.552,0,0,1,1.387-2.776,4.924,4.924,0,0,1,3.3-1.181,4.2,4.2,0,0,1,3.33,1.457,5.622,5.622,0,0,1,1.264,3.819q0,6.012-5.976,13.19-6.1,7.3-12.568,7.3a8.6,8.6,0,0,1-6.654-2.821A10.4,10.4,0,0,1,0,28.957Q0,20.431,8.606,12.1T25.973,3.773a10.8,10.8,0,0,1,8.436,3.605,13.645,13.645,0,0,1,3.233,9.467A28.865,28.865,0,0,1,34.1,30.01,85.919,85.919,0,0,1,22.659,46.059a1.632,1.632,0,0,0-.308.429l.062.092q.523,0,3.853-2.854a58.129,58.129,0,0,0,5.3-5.124Q34.035,35.932,44.578,24A115.444,115.444,0,0,1,55.554,12.873,67.623,67.623,0,0,1,66.189,5.462Q75.777,0,83.083,0q2.527,0,2.528.89" fill="#e5e5e5"/>
        <path id="Path_2" data-name="Path 2" d="M130.814,60.846q-.06.509-4.393,4.124a45.755,45.755,0,0,1-12.14,6.935l-2.135,2.789a45.149,45.149,0,0,1-12.4,11.669q-6.3,3.826-10.539,3.579a3.68,3.68,0,0,1-2.45-.976A2.4,2.4,0,0,1,86,86.874q.769-6.521,18.174-12.26,3.76-1.253,4.861-1.7l7.274-9.6a64.035,64.035,0,0,1-6.326,5.7,5.537,5.537,0,0,1-3.514,1.155,3.854,3.854,0,0,1-3-1.648,4.927,4.927,0,0,1-.889-3.639q.649-5.5,9.288-9.513,5.77-2.672,8.857-2.493,2.153.126,1.9,2.225a3.926,3.926,0,0,1-.484,1.349l2.388-3.1a7.463,7.463,0,0,0,1.66.322,24.429,24.429,0,0,0,2.753-.063q-.285.271-3.72,4.587l-10.5,13.092a49.438,49.438,0,0,0,8.053-4.1,51.066,51.066,0,0,0,7.115-5.948q.613-.6.793-.594a.167.167,0,0,1,.139.2m-22.2,12.585q-.723.31-4.269,1.576-17.21,6.232-17.885,11.957a1.938,1.938,0,0,0,.63,1.7,3.1,3.1,0,0,0,2.038.792q3.947.23,8.1-3.129T108.1,74.042Zm13.619-18.355q.191-1.622-1.567-1.725-3.229-.188-9.231,5.209t-6.415,8.9q-.252,2.131,1.83,2.253,2.117.124,7.844-5.242,7.231-6.782,7.539-9.391" transform="translate(-58.483 -35.958)" fill="#e5e5e5"/>
        <path id="Path_3" data-name="Path 3" d="M69.817,65.244A1.016,1.016,0,1,1,68.8,64.233a1.013,1.013,0,0,1,1.016,1.011" transform="translate(-46.108 -43.692)" fill="#e5e5e5"/>
        <path id="Path_4" data-name="Path 4" d="M188.624,111.763a.906.906,0,1,1-.906-.9.9.9,0,0,1,.906.9" transform="translate(-127.072 -75.41)" fill="#e5e5e5"/>
        <path id="Path_5" data-name="Path 5" d="M135.3,61.864a.992.992,0,1,1-.992-.987.99.99,0,0,1,.992.987" transform="translate(-90.683 -41.409)" fill="#e5e5e5"/>
        <path id="Path_6" data-name="Path 6" d="M62.3,69.448a.734.734,0,1,1-.734-.73.732.732,0,0,1,.734.73" transform="translate(-41.379 -46.743)" fill="#e5e5e5"/>
        <path id="Path_7" data-name="Path 7" d="M165.592,157.118a.733.733,0,1,1-.734-.73.732.732,0,0,1,.734.73" transform="translate(-111.64 -106.377)" fill="#e5e5e5"/>
        <path id="Path_8" data-name="Path 8" d="M27.647,87.257c1.966-.028,4.026-.077,6.141.05a32.045,32.045,0,0,1,3.2.334,21.71,21.71,0,0,1,3.192.735A13.491,13.491,0,0,1,45.841,91.7a13.918,13.918,0,0,1,2.046,2.718,28.725,28.725,0,0,1,1.58,3.226c.486,1.134.947,2.3,1.484,3.445a17.891,17.891,0,0,0,1.941,3.321,10.834,10.834,0,0,0,2.856,2.612,11.931,11.931,0,0,0,3.442,1.4l.438.1c.146.035.293.054.439.081.293.047.583.111.874.136s.58.068.867.094l.853.048a19.21,19.21,0,0,0,3.347-.1,23.851,23.851,0,0,0,3.135-.583,23.109,23.109,0,0,0,2.881-.932,28.642,28.642,0,0,1-6.066.672,20.652,20.652,0,0,1-3.182-.24l-.81-.12c-.268-.049-.532-.106-.8-.157s-.528-.128-.792-.191c-.131-.035-.265-.063-.394-.105l-.388-.124a11.027,11.027,0,0,1-2.906-1.406,9.563,9.563,0,0,1-2.289-2.3,17.708,17.708,0,0,1-1.653-3.029c-.486-1.09-.932-2.245-1.434-3.417a26.806,26.806,0,0,0-1.733-3.45,14.8,14.8,0,0,0-2.429-3.041,13.032,13.032,0,0,0-3.134-2.18,15.613,15.613,0,0,0-3.446-1.23,20.456,20.456,0,0,0-3.454-.5,27.367,27.367,0,0,0-3.327,0,51.469,51.469,0,0,0-6.142.794" transform="translate(-18.806 -58.779)" fill="#e5e5e5"/>
        <path id="Path_9" data-name="Path 9" d="M161.766,128.2a.493.493,0,0,1-.372.253c-.3.069-.894-.115-1.161.4a5.148,5.148,0,0,0,.116,3.406c.5,1.605,1.52,1.767,1.938,1.767a5.61,5.61,0,0,0,1.451-.266,1.67,1.67,0,0,1-1.044-1.373c0-.381-.162-.289-.209-.324a1.523,1.523,0,0,1-.847-1.57,2.787,2.787,0,0,1,1.033-1.72c.209-.277.382-.728.708-.774a1.051,1.051,0,0,1,.754-1.155c.592-.173,1.172-.392,1.172-.392s-.082-.208-.488-.208a3.082,3.082,0,0,0-1.694.161,2.352,2.352,0,0,0-1.357,1.791" transform="translate(-108.837 -85.842)" fill="#e5e5e5"/>
        <path id="Path_10" data-name="Path 10" d="M173.755,128.057a8.615,8.615,0,0,1,2.663-.122c.383.156.8.831,1.149.849,0,0,.626-.1.783.1s.383,1.23.575,1.4a2.119,2.119,0,0,1,.157.744,3.681,3.681,0,0,0,.487-.987c.017-.278.122-1.109-.418-1.351a2.516,2.516,0,0,1-1.184-.838,1.371,1.371,0,0,0-1.41-.894,8.494,8.494,0,0,0-.923.121,4.231,4.231,0,0,0-1.427.485c-.331.278-.619.515-.453.485" transform="translate(-118.157 -86.364)" fill="#e5e5e5"/>
        <path id="Path_11" data-name="Path 11" d="M191.356,137.676s-.263.069-.3.242a1.715,1.715,0,0,0,0,.676c.052.329-.1.728-.033.9a1.618,1.618,0,0,1-.018.762c-.019.19.242.26.486-.122s.383-.433.383-.433a1.832,1.832,0,0,0,.5-1.784,2.024,2.024,0,0,0-.383-.953c-.1-.121-.171-.138-.277.1s-.175.515-.365.606" transform="translate(-129.925 -93.107)" fill="#e5e5e5"/>
        <path id="Path_12" data-name="Path 12" d="M175.328,146.678a1.791,1.791,0,0,1-.157.675c-.122.139-.122.278-.226.555a2.165,2.165,0,0,1-.8.831,1.322,1.322,0,0,1-.713.156,6.9,6.9,0,0,1-1.741.311,8.792,8.792,0,0,1-2.124-.121,1.644,1.644,0,0,1-.914-.571c-.043-.087-.1-.138.322-.138a6.219,6.219,0,0,0,1.584-.159,1,1,0,0,1,.923-.153c.47.1.592.087.9-.156s.458-.416.8-.33.676.052.763-.259a.526.526,0,0,1,.609-.381.726.726,0,0,0,.575-.26c.122-.122.2-.087.192,0" transform="translate(-114.699 -99.718)" fill="#e5e5e5"/>
        <path id="Path_13" data-name="Path 13" d="M169.742,131.967a6.858,6.858,0,0,0,.731-.242,4.2,4.2,0,0,1,.8-.122c.052,0,.192-.225-.452-.381a2.84,2.84,0,0,0-1.393,0,5.51,5.51,0,0,0-1.1.328c-.244.122-.522.641-.679.867s-.731.69-.818,1.055a1.523,1.523,0,0,0,.278,1.37c.383.416.575.381,1.1.433a2.226,2.226,0,0,0,1.288-.225c.087-.121.035-.191-.139-.173a2.093,2.093,0,0,1-1.1-.451.92.92,0,0,1-.226-1.039A3.384,3.384,0,0,1,169,132.3a3.207,3.207,0,0,1,.745-.329" transform="translate(-113.448 -89.199)" fill="#e5e5e5"/>
        <path id="Path_14" data-name="Path 14" d="M170.994,143.139s-.122.312.313.762.766.555,1.114.45.592.04.887.037a.664.664,0,0,0,.592-.418c.139-.243.5-.069.627-.069a.745.745,0,0,0,.644-.6c-.052-.528.035-.573,0-.793s.018-.6-.244-.757a4.67,4.67,0,0,0-.888.433,3.248,3.248,0,0,1-.835.606,2.66,2.66,0,0,1-1.3.173c-.39-.1-.936-.152-.913.173" transform="translate(-116.301 -96.422)" fill="#e5e5e5"/>
        <path id="Path_15" data-name="Path 15" d="M178.246,136.2a1.705,1.705,0,0,1,.1.831c-.1.242-.29.554.029.589s1.295-.295,1.294-1.074a4.448,4.448,0,0,0-.314-1.666c-.1-.222-.184-.725-.422-.915a1.31,1.31,0,0,0-.736-.364c-.286-.018-1.191-.018-1.487,0a5,5,0,0,0-1.114.5c-.244.1-.662.07-.61.243s.47.208.592.295.418.409.54.239.5-.742.87-.742a1.086,1.086,0,0,1,.914.415c.113.243.252,1.34.34,1.646" transform="translate(-119.028 -90.868)" fill="#e5e5e5"/>
        <path id="Path_16" data-name="Path 16" d="M177.184,137.019a6.782,6.782,0,0,1-.615,1.247,1.4,1.4,0,0,1-.851.45,3.893,3.893,0,0,1-1.066-.225c-.169-.052-.274-.294.074-.485a2.036,2.036,0,0,1,.94-.4c.383-.018.587-.728.9-.762s.695-.025.615.173" transform="translate(-118.694 -93.074)" fill="#e5e5e5"/>
        <path id="Path_17" data-name="Path 17" d="M173.839,137.6a4.006,4.006,0,0,0-.863.532c-.043.127-.217.269-.356-.036s-.07-.391.209-.617a.885.885,0,0,1,.592-.173c.122-.035.632.184.418.294" transform="translate(-117.371 -93.394)" fill="#e5e5e5"/>
        <path id="Path_18" data-name="Path 18" d="M22.372,102.875a1.669,1.669,0,0,0,.416,2.188,2.008,2.008,0,0,0,2.7-.384c.535-.5,1.07-1.568.416-3.312s-3.269-2.72-5.467-2.128a6.6,6.6,0,0,0-4.635,6.3c.208,3.84,1.872,5.711,4.338,7.751a14.307,14.307,0,0,0,3.358,1.646c.891.3,5.4.879,7.844-.384,0,.177-.417.491-.417.491a11.79,11.79,0,0,1-3.3.623,11.985,11.985,0,0,1-7.034-1.676,9.788,9.788,0,0,1-5.229-9.579,6.73,6.73,0,0,1,5.08-6.149,6.151,6.151,0,0,1,4,.181,5.226,5.226,0,0,1,2.618,2.22,4.638,4.638,0,0,1-.846,5.075,3.512,3.512,0,0,1-1.256.721c-1.823.559-3.738-.364-3.832-2.374a1.394,1.394,0,0,1,1.07-1.626c.267-.029.308.112.178.414" transform="translate(-10.441 -66.672)" fill="#e5e5e5"/>
        <path id="Path_19" data-name="Path 19" d="M28.82,118.53a11.138,11.138,0,0,1-6.477-2.433,8.049,8.049,0,0,1-3.536-7.746,5.6,5.6,0,0,1,4.13-4.671,3.678,3.678,0,0,1,3.15.65s.624.473.743.236-.059-.605-.475-.982-3.8-2.329-6.745,1.278-.535,8.159-.535,8.159a11.416,11.416,0,0,0,9.745,5.507" transform="translate(-12.344 -69.871)" fill="#e5e5e5"/>
        <path id="Path_20" data-name="Path 20" d="M9.939,43.432l3.762,9h.345l3.585-8.739q.871-2.155,2.209-2.154v-.34H16.3v.321q1.087,0,1.087.784a2.138,2.138,0,0,1-.176.766l-2.822,6.906-2.974-7.152a1.425,1.425,0,0,1-.135-.558q0-.745,1.064-.746v-.321H7.928v.321a1.722,1.722,0,0,1,1.1.345,4.7,4.7,0,0,1,.912,1.572m21.909,8.523a1.3,1.3,0,0,1-1.077-.383,2.314,2.314,0,0,1-.3-1.376V43.283a2.337,2.337,0,0,1,.3-1.381,1.291,1.291,0,0,1,1.077-.387v-.321H27.477v.321a1.31,1.31,0,0,1,1.093.373,2.43,2.43,0,0,1,.285,1.395V50.2a2.375,2.375,0,0,1-.29,1.38,1.3,1.3,0,0,1-1.088.379v.321h4.371Zm12.208,0q-.96-.018-.96-.72a4.094,4.094,0,0,1,.311-1.221l.515-1.468h4.6l.74,2.32a1.173,1.173,0,0,1,.093.426q0,.663-1.045.663v.321H52.59v-.321a1.869,1.869,0,0,1-1.084-.246,2.409,2.409,0,0,1-.648-1.089l-3.318-9.55H46.29l-3.569,9.141a3.463,3.463,0,0,1-.757,1.337,1.942,1.942,0,0,1-1.047.406v.321h3.138Zm2.317-9.543,1.942,5.506H44.131Zm24.021,5.483h-4.92v.321h.466a1.205,1.205,0,0,1,1.041.407,2.547,2.547,0,0,1,.295,1.429v.784q0,1.185-2.04,1.184a4.579,4.579,0,0,1-3.578-1.607,5.87,5.87,0,0,1-1.424-4.043,5.288,5.288,0,0,1,1.232-3.623,4.014,4.014,0,0,1,3.159-1.4,4.486,4.486,0,0,1,2.678.817,3.168,3.168,0,0,1,1.352,2.177H69V41.07h-.383a.672.672,0,0,1-.684.369,4.8,4.8,0,0,1-1.14-.2,8.223,8.223,0,0,0-2.165-.321,6.4,6.4,0,0,0-3.133.812,5.909,5.909,0,0,0-3.123,5.32,4.867,4.867,0,0,0,1.88,3.987,8.164,8.164,0,0,0,5.246,1.511q.642,0,1.807-.084a11.571,11.571,0,0,0,1.59-.189V49.712a1.575,1.575,0,0,1,.347-1.159,1.623,1.623,0,0,1,1.155-.337ZM79,51.572a1.29,1.29,0,0,1-1.1.383v.321h8.125l.35-2.487h-.362c-.228.46-.233,1.21-.433,1.415a1.553,1.553,0,0,1-.736.421,2.046,2.046,0,0,1-.946.113H81.776a1.077,1.077,0,0,1-.689-.17.732.732,0,0,1-.2-.586V47.014h1.968a2.633,2.633,0,0,1,1.222.179,1.543,1.543,0,0,1,.476.888h.363V45.387h-.363a1.507,1.507,0,0,1-.368.861,1.453,1.453,0,0,1-.948.227H80.884V41.732h2.664a2.851,2.851,0,0,1,1.507.259,1.82,1.82,0,0,1,.533,1.054h.228V41.194H77.693v.321a1.83,1.83,0,0,1,1.3.379,2.4,2.4,0,0,1,.29,1.389v6.932A2.4,2.4,0,0,1,79,51.572M14.715,58.05a.88.88,0,0,0-.486.13.949.949,0,0,0-.211.2V56.616l-.809.111v.064a.363.363,0,0,1,.316.129.741.741,0,0,1,.094.426v3.114h.106c.069-.146.148-.22.238-.22a.3.3,0,0,1,.108.025l.148.062a1.182,1.182,0,0,0,.426.068,1.1,1.1,0,0,0,.785-.289,1.182,1.182,0,0,0,.354-.907,1.108,1.108,0,0,0-.369-.891,1.037,1.037,0,0,0-.7-.257m.4,1.979a.624.624,0,0,1-.531.308.506.506,0,0,1-.272-.075.459.459,0,0,1-.18-.2,1.288,1.288,0,0,1-.082-.348,3.917,3.917,0,0,1-.032-.522,1.983,1.983,0,0,1,.095-.721.563.563,0,0,1,.194-.246.481.481,0,0,1,.285-.094.5.5,0,0,1,.248.068.763.763,0,0,1,.221.2,1.128,1.128,0,0,1,.194.382,1.6,1.6,0,0,1,.069.473,1.366,1.366,0,0,1-.209.783M19.642,58.9a.821.821,0,0,0-.193-.559.812.812,0,0,0-.3-.219,1,1,0,0,0-.391-.076,1.1,1.1,0,0,0-.706.247,1.135,1.135,0,0,0-.426.937,1.194,1.194,0,0,0,.225.738,1,1,0,0,0,.394.319,1.375,1.375,0,0,0,.558.1,1.039,1.039,0,0,0,.6-.157.746.746,0,0,0,.295-.469l-.056-.02a.753.753,0,0,1-.163.3.584.584,0,0,1-.212.132.76.76,0,0,1-.27.047.833.833,0,0,1-.367-.084.847.847,0,0,1-.294-.234,1.092,1.092,0,0,1-.183-.367,1.531,1.531,0,0,1-.067-.451c0-.039,0-.1.011-.188Zm-1.332-.6a.51.51,0,0,1,.4-.2.462.462,0,0,1,.252.076.553.553,0,0,1,.19.206,1.013,1.013,0,0,1,.1.41H18.109a.876.876,0,0,1,.2-.495m4.413.776a.74.74,0,0,1-.184.095q-.11.04-.34.1a1.7,1.7,0,0,0-.3.1.642.642,0,0,0-.182.131.519.519,0,0,0-.14.369.467.467,0,0,0,.171.38.709.709,0,0,0,.462.141.809.809,0,0,0,.4-.1,1.778,1.778,0,0,0,.267-.21.691.691,0,0,0,.17.213.506.506,0,0,0,.312.093.409.409,0,0,0,.436-.279l-.045-.027a.448.448,0,0,1-.109.117.245.245,0,0,1-.128.029.21.21,0,0,1-.216-.188,1.745,1.745,0,0,1-.022-.34v-.982a1.209,1.209,0,0,0-.021-.269.419.419,0,0,0-.215-.255,1.194,1.194,0,0,0-.3-.109,1.454,1.454,0,0,0-.341-.043,1.5,1.5,0,0,0-.3.031,1.11,1.11,0,0,0-.256.079c-.128.061-.191.138-.191.228a.2.2,0,0,0,.06.15.209.209,0,0,0,.151.06.19.19,0,0,0,.19-.126l.066-.153a.34.34,0,0,1,.32-.211.4.4,0,0,1,.173.04.4.4,0,0,1,.136.106.719.719,0,0,1,.116.455.643.643,0,0,1-.032.227.317.317,0,0,1-.116.145m.154-.038v.443A1.288,1.288,0,0,1,22.8,60a.5.5,0,0,1-.173.216.415.415,0,0,1-.244.081.3.3,0,0,1-.244-.114.438.438,0,0,1-.1-.29.555.555,0,0,1,.124-.358.71.71,0,0,1,.134-.127,2.51,2.51,0,0,1,.266-.156,1.87,1.87,0,0,0,.314-.211M27.219,60.4l.727-.1v-.056a.454.454,0,0,1-.183-.041.3.3,0,0,1-.111-.107.471.471,0,0,1-.057-.179,3.417,3.417,0,0,1-.014-.382V58.091H26.8v.058a.546.546,0,0,1,.275.106.281.281,0,0,1,.081.141,1.206,1.206,0,0,1,.02.261l0,.2v.52a2.764,2.764,0,0,1-.025.445.572.572,0,0,1-.1.239.5.5,0,0,1-.2.159.666.666,0,0,1-.277.059.552.552,0,0,1-.243-.052.4.4,0,0,1-.166-.142.6.6,0,0,1-.072-.224,3.246,3.246,0,0,1-.02-.421V58.091H25.3v.058a.561.561,0,0,1,.275.106.3.3,0,0,1,.079.141,1.153,1.153,0,0,1,.021.261l0,.2v.923a.548.548,0,0,0,.2.451.825.825,0,0,0,.531.162,1.068,1.068,0,0,0,.783-.332,1.6,1.6,0,0,0,.034.332m2.969-3-.027.088a1.387,1.387,0,0,1-.1.251,1.076,1.076,0,0,1-.14.2.74.74,0,0,1-.318.215v.043h.283V59.8a1.481,1.481,0,0,0,.024.321.29.29,0,0,0,.1.152.686.686,0,0,0,.454.122.881.881,0,0,0,.393-.077.545.545,0,0,0,.245-.237l-.04-.034a.688.688,0,0,1-.174.179.37.37,0,0,1-.2.049.427.427,0,0,1-.177-.037.336.336,0,0,1-.132-.1.647.647,0,0,1-.1-.4V58.192h.672v-.1h-.672V57.4Zm2.492.914a2.557,2.557,0,0,1,.111.241l.079.191.547,1.323a1.107,1.107,0,0,1,.1.342.576.576,0,0,1-.053.2l-.082.2c-.069.165-.157.248-.266.248a.191.191,0,0,1-.059-.009c-.017-.005-.054-.019-.112-.042a.44.44,0,0,0-.158-.037.2.2,0,0,0-.132.041.135.135,0,0,0-.05.109.163.163,0,0,0,.086.143.417.417,0,0,0,.226.054.455.455,0,0,0,.362-.168,1.911,1.911,0,0,0,.222-.435l.767-1.869a3.824,3.824,0,0,1,.243-.523.377.377,0,0,1,.1-.109.639.639,0,0,1,.168-.067v-.058h-.756v.058a.309.309,0,0,1,.193.087.266.266,0,0,1,.067.19,1.659,1.659,0,0,1-.143.507l-.386.957-.442-1.138a1.253,1.253,0,0,1-.108-.379.192.192,0,0,1,.1-.18.477.477,0,0,1,.156-.043v-.058H32.443v.058a.313.313,0,0,1,.158.061.326.326,0,0,1,.08.1m6.826.082a1.177,1.177,0,0,1,.02.261l0,.2v.923a.548.548,0,0,0,.2.451.825.825,0,0,0,.531.162,1.065,1.065,0,0,0,.782-.332,1.6,1.6,0,0,0,.035.332l.727-.1v-.056a.45.45,0,0,1-.182-.041.3.3,0,0,1-.112-.107.465.465,0,0,1-.056-.179,3.417,3.417,0,0,1-.014-.382V58.091h-.777v.058a.544.544,0,0,1,.274.106.281.281,0,0,1,.081.141,1.207,1.207,0,0,1,.02.261l0,.2v.52a2.753,2.753,0,0,1-.025.445.567.567,0,0,1-.1.239.5.5,0,0,1-.2.159.665.665,0,0,1-.277.059.554.554,0,0,1-.243-.052.4.4,0,0,1-.166-.142.6.6,0,0,1-.072-.224,3.259,3.259,0,0,1-.02-.421V58.091h-.777v.058a.56.56,0,0,1,.275.106.3.3,0,0,1,.08.141m4.723-.382-.772.109v.066a.369.369,0,0,1,.316.128.741.741,0,0,1,.094.427v1.834c0,.154,0,.272-.012.356a.568.568,0,0,1-.041.185.26.26,0,0,1-.111.131.716.716,0,0,1-.227.058v.056h1.169v-.056a.533.533,0,0,1-.273-.106.3.3,0,0,1-.082-.142,1.2,1.2,0,0,1-.021-.264v-.183l0-.487a1.388,1.388,0,0,0,.334.213.919.919,0,0,0,.342.058,1.066,1.066,0,0,0,.715-.257,1.053,1.053,0,0,0,.3-.412,1.381,1.381,0,0,0,.1-.538,1.308,1.308,0,0,0-.1-.511A1.01,1.01,0,0,0,45,58.05a1.163,1.163,0,0,0-.372.057,1.545,1.545,0,0,0-.367.19v-.05a1.044,1.044,0,0,0-.029-.234m.068.689a.842.842,0,0,1,.113-.317.549.549,0,0,1,.461-.258.581.581,0,0,1,.482.271,1.193,1.193,0,0,1,.18.376,1.564,1.564,0,0,1,.065.447,1.511,1.511,0,0,1-.068.454,1.176,1.176,0,0,1-.195.377.608.608,0,0,1-.487.265.56.56,0,0,1-.437-.224.722.722,0,0,1-.113-.3,3.57,3.57,0,0,1-.031-.553A3.5,3.5,0,0,1,44.3,58.7m7.172-.321v-.043a1.215,1.215,0,0,0-.037-.288l-.724.1V58.2a.483.483,0,0,1,.182.04A.281.281,0,0,1,51,58.35a.405.405,0,0,1,.058.178,3.66,3.66,0,0,1,.013.382v.653c0,.155,0,.273-.012.355a.6.6,0,0,1-.041.185.281.281,0,0,1-.111.13.708.708,0,0,1-.227.06v.055h1.168v-.055a.542.542,0,0,1-.272-.11.272.272,0,0,1-.082-.138,1.186,1.186,0,0,1-.021-.264l0-.2v-.52a2.7,2.7,0,0,1,.025-.445.562.562,0,0,1,.1-.239.5.5,0,0,1,.2-.16.649.649,0,0,1,.275-.058.585.585,0,0,1,.251.052.392.392,0,0,1,.174.144.522.522,0,0,1,.075.217A3.29,3.29,0,0,1,52.6,59v.563c0,.153,0,.272-.012.354a.578.578,0,0,1-.041.184.274.274,0,0,1-.111.132.718.718,0,0,1-.228.06v.055h1.169v-.055a.54.54,0,0,1-.272-.11.275.275,0,0,1-.082-.138A1.211,1.211,0,0,1,53,59.78V58.656a.529.529,0,0,0-.2-.446.865.865,0,0,0-.545-.159,1.061,1.061,0,0,0-.78.331m4.712,1.911a.552.552,0,0,1-.272-.109.277.277,0,0,1-.082-.139,1.182,1.182,0,0,1-.021-.264l0-.2V58.05l-.761.1V58.2a.48.48,0,0,1,.182.04.283.283,0,0,1,.109.108.418.418,0,0,1,.058.178c.008.074.013.2.013.382v.653c0,.155,0,.273-.012.355a.592.592,0,0,1-.041.185.279.279,0,0,1-.111.13.7.7,0,0,1-.227.06v.055h1.169ZM55.594,57.1a.236.236,0,0,0,.171-.067.238.238,0,0,0,0-.334.25.25,0,0,0-.34,0,.237.237,0,0,0,0,.334.234.234,0,0,0,.171.067m4.033,4.023a.625.625,0,0,0,.27-.539.572.572,0,0,0-.233-.487.844.844,0,0,0-.278-.129,1.644,1.644,0,0,0-.389-.04H58.56c-.221,0-.331-.058-.331-.17,0-.13.13-.2.389-.218.189-.012.3-.021.337-.027a.939.939,0,0,0,.332-.134.629.629,0,0,0,.308-.55.851.851,0,0,0-.216-.542.312.312,0,0,1,.205-.1.173.173,0,0,1,.143.063l.061.08a.2.2,0,0,0,.154.091.118.118,0,0,0,.093-.043.14.14,0,0,0,.038-.1.205.205,0,0,0-.1-.17.358.358,0,0,0-.209-.056.547.547,0,0,0-.216.042.952.952,0,0,0-.224.139.922.922,0,0,0-.518-.181.779.779,0,0,0-.326.07.808.808,0,0,0-.275.192.676.676,0,0,0-.2.477.633.633,0,0,0,.127.383.9.9,0,0,0,.357.281,1.355,1.355,0,0,0-.328.114.335.335,0,0,0-.174.3.378.378,0,0,0,.164.306.662.662,0,0,0,.417.123h.421a.7.7,0,0,1,.415.1.348.348,0,0,1,.145.3.466.466,0,0,1-.218.4,1.154,1.154,0,0,1-1.12.014A.408.408,0,0,1,58,60.76a.341.341,0,0,1,.07-.221.224.224,0,0,1,.181-.084.2.2,0,0,1,.111.028.314.314,0,0,1,.09.1l.047-.014v-.029a.248.248,0,0,0-.075-.188.27.27,0,0,0-.195-.073.365.365,0,0,0-.277.124.428.428,0,0,0-.114.3.508.508,0,0,0,.153.376,1.159,1.159,0,0,0,.818.234,1.389,1.389,0,0,0,.815-.2M58.387,58.81a1.122,1.122,0,0,1,.035-.276.807.807,0,0,1,.092-.234.347.347,0,0,1,.306-.191.3.3,0,0,1,.258.146.9.9,0,0,1,.137.524.985.985,0,0,1-.105.5.328.328,0,0,1-.3.178.356.356,0,0,1-.307-.18.828.828,0,0,1-.12-.465m3.577,1.107a.6.6,0,0,1-.041.184.277.277,0,0,1-.112.132.7.7,0,0,1-.227.06v.055h1.168v-.055a.542.542,0,0,1-.272-.11.277.277,0,0,1-.082-.138,1.191,1.191,0,0,1-.021-.264l0-.2V59.16q0-1.014.638-1.014a.477.477,0,0,1,.38.156.5.5,0,0,1,.1.193,1.246,1.246,0,0,1,.029.3v.84a2.194,2.194,0,0,1-.019.336.415.415,0,0,1-.066.18.27.27,0,0,1-.107.091.816.816,0,0,1-.2.046v.055H64.3v-.055a.544.544,0,0,1-.272-.11.27.27,0,0,1-.082-.138,1.167,1.167,0,0,1-.021-.264l0-.2V58.8a1.122,1.122,0,0,0-.054-.4.485.485,0,0,0-.2-.227,1.091,1.091,0,0,0-.954-.029.7.7,0,0,0-.172.111,1.573,1.573,0,0,0-.164.178v-1.82l-.761.1v.058a.521.521,0,0,1,.182.039.283.283,0,0,1,.108.107.422.422,0,0,1,.059.18q.013.112.013.382v2.081c0,.156,0,.276-.012.358m5.259.31a.37.37,0,0,1-.2.049.428.428,0,0,1-.177-.037.338.338,0,0,1-.132-.1.647.647,0,0,1-.095-.4V58.192h.672v-.1h-.672V57.4h-.1l-.027.088a1.437,1.437,0,0,1-.1.251,1.081,1.081,0,0,1-.141.2.739.739,0,0,1-.318.215v.043h.283V59.8a1.434,1.434,0,0,0,.024.321.289.289,0,0,0,.1.152.687.687,0,0,0,.455.122.883.883,0,0,0,.392-.077.546.546,0,0,0,.244-.237l-.039-.034a.683.683,0,0,1-.174.179m4.879-2.88v3.114h.106c.069-.146.148-.22.238-.22a.3.3,0,0,1,.108.025l.148.062a1.181,1.181,0,0,0,.426.068,1.1,1.1,0,0,0,.785-.289,1.182,1.182,0,0,0,.354-.907,1.109,1.109,0,0,0-.37-.891,1.036,1.036,0,0,0-.7-.257.88.88,0,0,0-.486.13.956.956,0,0,0-.211.2V56.616l-.809.111v.064a.363.363,0,0,1,.316.129.743.743,0,0,1,.094.426m.494,1.12a.562.562,0,0,1,.2-.246.481.481,0,0,1,.284-.094.5.5,0,0,1,.247.068.757.757,0,0,1,.222.2,1.129,1.129,0,0,1,.195.382,1.613,1.613,0,0,1,.068.473,1.361,1.361,0,0,1-.209.783.623.623,0,0,1-.531.308.508.508,0,0,1-.272-.075.462.462,0,0,1-.18-.2,1.3,1.3,0,0,1-.082-.348,3.917,3.917,0,0,1-.032-.522,1.992,1.992,0,0,1,.095-.721m4.89-.417a.833.833,0,0,0-.5.157.753.753,0,0,0-.214.251,2.251,2.251,0,0,0-.045-.408l-.682.1V58.2a.482.482,0,0,1,.183.04.285.285,0,0,1,.109.108.414.414,0,0,1,.058.178,3.785,3.785,0,0,1,.013.382v.653c0,.155,0,.273-.012.355a.592.592,0,0,1-.041.185.279.279,0,0,1-.111.13.705.705,0,0,1-.227.06v.055h1.169v-.055a.542.542,0,0,1-.272-.11.274.274,0,0,1-.082-.138,1.191,1.191,0,0,1-.021-.264l0-.2v-.5a1.685,1.685,0,0,1,.1-.65c.067-.155.16-.234.28-.234a.305.305,0,0,1,.23.1l.082.089a.2.2,0,0,0,.156.075.173.173,0,0,0,.126-.048.164.164,0,0,0,.049-.122.212.212,0,0,0-.082-.169.394.394,0,0,0-.262-.077m3.051,2.25a1.763,1.763,0,0,0,.267-.21.7.7,0,0,0,.17.213.506.506,0,0,0,.312.093.41.41,0,0,0,.436-.279l-.045-.027a.459.459,0,0,1-.109.117.247.247,0,0,1-.129.029.21.21,0,0,1-.216-.188,1.745,1.745,0,0,1-.022-.34v-.982a1.215,1.215,0,0,0-.02-.269.422.422,0,0,0-.215-.255,1.191,1.191,0,0,0-.3-.109,1.461,1.461,0,0,0-.342-.043,1.5,1.5,0,0,0-.3.031,1.11,1.11,0,0,0-.256.079c-.128.061-.191.138-.191.228a.2.2,0,0,0,.06.15.209.209,0,0,0,.151.06.191.191,0,0,0,.191-.126l.066-.153a.341.341,0,0,1,.32-.211.4.4,0,0,1,.173.04.4.4,0,0,1,.136.106.719.719,0,0,1,.116.455.652.652,0,0,1-.032.227.319.319,0,0,1-.116.145.742.742,0,0,1-.184.095q-.109.04-.34.1a1.684,1.684,0,0,0-.3.1.635.635,0,0,0-.183.131.52.52,0,0,0-.14.369.466.466,0,0,0,.17.38.709.709,0,0,0,.462.141.809.809,0,0,0,.4-.1m-.572-.4a.558.558,0,0,1,.124-.358.72.72,0,0,1,.134-.127,2.5,2.5,0,0,1,.266-.156,1.88,1.88,0,0,0,.314-.211v.443a1.288,1.288,0,0,1-.082.516.5.5,0,0,1-.173.216.414.414,0,0,1-.243.081.3.3,0,0,1-.244-.114.436.436,0,0,1-.1-.29M13.5,71.741c0,.12.074.18.224.18.225,0,.338-.078.338-.235l-.027-1.52v-.542c.143-.1.214-.178.214-.239,0-.043-.053-.115-.16-.216-.171-.151-.287-.226-.348-.226q-.069,0-.325.313H11.835a9.893,9.893,0,0,0,.918-1.142c.225-.062.339-.13.339-.207,0-.06-.063-.155-.188-.281-.183-.172-.3-.258-.347-.258s-.171.111-.357.331H10.751a5.955,5.955,0,0,0,.27-.617c.244-.037.366-.1.366-.2q0-.12-.851-.336a4.083,4.083,0,0,1-.224.838,7.7,7.7,0,0,1-1.536,2.5.033.033,0,0,0-.009.024.061.061,0,0,0,.068.069.055.055,0,0,0,.028-.009,6.719,6.719,0,0,0,.594-.479v.732L9.43,71.741c0,.127.078.189.233.189q.329,0,.329-.226v-.162h1.143a4.744,4.744,0,0,1-.7,1.593,5.776,5.776,0,0,1-2.158,1.828.048.048,0,0,0-.022.045c0,.052.018.078.054.078H8.32a5.306,5.306,0,0,0,2.527-1.735,4.6,4.6,0,0,0,.841-1.81H13.5Zm-2.313-.432h-1.2V69.481h1.367a13.317,13.317,0,0,1-.169,1.828m.412-2.053H10.116c-.07-.044-.161-.1-.274-.161a6.306,6.306,0,0,0,.795-1.16H12.21a8.989,8.989,0,0,1-.608,1.321m.142,2.053a12.97,12.97,0,0,0,.187-1.828H13.5v1.828Zm2.706,2.946a.234.234,0,0,1-.142-.207q0-.188.064-.829c0-.024-.012-.042-.046-.051s-.066,0-.078.033a2.661,2.661,0,0,1-.448,1.1,1.669,1.669,0,0,1-.877.141,1,1,0,0,1-.462-.068q-.1-.06-.1-.3V72.45c.207-.1.311-.174.311-.235q0-.156-.873-.234c.025.236.037.623.037,1.159l-.009,1.018a.782.782,0,0,0,.187.589,1.379,1.379,0,0,0,.9.212,5.091,5.091,0,0,0,1.225-.1q.43-.124.43-.386a.221.221,0,0,0-.119-.216M8.7,73.233l-.028-3.614V67.888c.155-.1.233-.178.233-.239s-.051-.131-.151-.216c-.183-.157-.3-.234-.357-.234-.036,0-.141.1-.315.3H7.1a5.292,5.292,0,0,0-.645-.323q.046.6.046,2.632l-.046,3.8c0,.12.077.18.233.18.231,0,.347-.072.347-.216v-.53H8.142v.244c0,.119.078.18.233.18q.33,0,.329-.235m-.562-.424H7.036V70.346H8.142Zm0-2.7H7.036V67.737H8.142Zm16.542.065a2.608,2.608,0,0,0-.553-.406,2.93,2.93,0,0,0-.526.539H20.085q.242-.488.525-1.206c.244-.053.366-.118.366-.2s-.291-.193-.873-.368a5.425,5.425,0,0,1-.288.925q-.228.543-.374.847H17.585a3.776,3.776,0,0,1-.731-.074l.1.355a4.166,4.166,0,0,1,.635-.046h1.732a16.233,16.233,0,0,1-1.12,1.887.463.463,0,0,0-.114.226c0,.04.043.082.128.124a.547.547,0,0,0,.256.073.212.212,0,0,0,.128-.032.872.872,0,0,0,.151-.184q.237-.364.293-.437a16.088,16.088,0,0,1,1.814.763A7,7,0,0,1,16.867,74.8c-.021.006-.032.026-.032.059,0,.056.018.08.055.074a10.514,10.514,0,0,0,2.468-.479,5.09,5.09,0,0,0,1.988-1.215,7.639,7.639,0,0,1,1.687,1.243,4.689,4.689,0,0,0,.393.359.407.407,0,0,0,.237.091.193.193,0,0,0,.156-.078.394.394,0,0,0,.087-.271q0-.354-.553-.8a7.286,7.286,0,0,0-1.668-.926,6.234,6.234,0,0,0,1.134-2.319h1.974c.082,0,.123-.03.123-.092s-.077-.141-.233-.276m-3.551,2.471a16.1,16.1,0,0,0-2-.6q.448-.738.842-1.5h2.194a5.818,5.818,0,0,1-1.033,2.1m3.071-5q-.078,0-.393.35H21.077v-.8c.219-.1.329-.182.329-.253s-.046-.1-.137-.138a4.869,4.869,0,0,0-.828-.129,6.351,6.351,0,0,1,.046.719V68H17.9a2.86,2.86,0,0,0-.046-.469c-.006-.027-.027-.041-.064-.041s-.051.014-.051.041a1.62,1.62,0,0,1-.169.659,1.374,1.374,0,0,1-.535.506.422.422,0,0,0-.261.359.35.35,0,0,0,.082.234.308.308,0,0,0,.247.115.6.6,0,0,0,.48-.281,1.638,1.638,0,0,0,.306-.887h5.951a6.9,6.9,0,0,1-.443,1.008.049.049,0,0,0-.005.023c0,.036.021.056.064.056a.05.05,0,0,0,.037-.014,7.841,7.841,0,0,0,.75-.668.508.508,0,0,1,.158-.117.711.711,0,0,1,.226-.025c.2,0,.3-.057.3-.17,0-.056-.078-.159-.233-.309q-.4-.367-.489-.368m6.719-.92a6.343,6.343,0,0,1,.046.811v1.086H28.441a4.985,4.985,0,0,1-.741-.065l.1.354a3.632,3.632,0,0,1,.654-.055h6.486c.088,0,.132-.028.132-.083s-.075-.156-.224-.285a2.252,2.252,0,0,0-.535-.4q-.083,0-.526.53H31.576V67.249q.338-.148.338-.253c0-.055-.047-.1-.142-.133a4.825,4.825,0,0,0-.85-.134m-1.915,2.808c-.046,0-.068.017-.068.051V69.6a8.955,8.955,0,0,1,.731,3.09,1.1,1.1,0,0,0,.073.423.239.239,0,0,0,.233.142.317.317,0,0,0,.26-.138.738.738,0,0,0,.133-.465,3.877,3.877,0,0,0-.3-1.381,6.289,6.289,0,0,0-1.014-1.722.061.061,0,0,0-.046-.017M35.3,74.024a2.333,2.333,0,0,0-.544-.432q-.087,0-.544.585H31.768a24.53,24.53,0,0,0,1.842-4.128c.244-.035.366-.1.366-.2s-.331-.267-.992-.46a9.045,9.045,0,0,1-.242,1.179A25.312,25.312,0,0,1,31.5,74.176H27.947a5.106,5.106,0,0,1-.777-.056l.091.354a3.885,3.885,0,0,1,.7-.063h7.459c.088,0,.133-.029.133-.083s-.084-.147-.252-.3m10.915-3.13c0-.058-.05-.13-.151-.216a1.545,1.545,0,0,0-.438-.312q-.078,0-.4.377H41.655a3.172,3.172,0,0,1-.608-.056l.091.345a2.7,2.7,0,0,1,.517-.055H46.1c.076,0,.114-.027.114-.083m-3.835,2.357c-.04,0-.059.015-.059.046a.029.029,0,0,0,.009.019,2.08,2.08,0,0,1,.3.87c.025.174.105.263.242.263a.249.249,0,0,0,.187-.083.39.39,0,0,0,.091-.272q0-.465-.749-.838a.055.055,0,0,0-.023,0M46.166,74.5a1.782,1.782,0,0,0-.439-.322q-.078,0-.425.4H44.1a4.434,4.434,0,0,0,.677-.829c.216-.015.324-.063.324-.143s-.236-.2-.709-.377a3.281,3.281,0,0,1-.133.5,6.279,6.279,0,0,1-.374.847H41.513a4.3,4.3,0,0,1-.618-.055l.092.345a2.61,2.61,0,0,1,.535-.055h4.689c.083,0,.123-.03.123-.091s-.057-.121-.169-.217m-.484-2.753c0-.052-.047-.117-.142-.2a1.019,1.019,0,0,0-.329-.217c-.037,0-.136.084-.3.254H42.308a6.569,6.569,0,0,0-.6-.29,8.549,8.549,0,0,1,.046.98l-.018.884a.206.206,0,0,0,.036.143.272.272,0,0,0,.169.037c.207,0,.31-.075.31-.225v-.161h2.715v.115c0,.116.069.175.206.175q.32,0,.32-.226l-.028-.846v-.208c.143-.094.215-.168.215-.216m-.713.972H42.253v-.9h2.715ZM40.64,70.388q-.251-.231-.315-.231c-.045,0-.141.09-.288.267H38.9a3.484,3.484,0,0,0-.562-.3q.027.492.028,2.168l-.028,2.624c0,.131.072.2.215.2.213,0,.32-.079.32-.236l-.009-1.924h1.221v1.377a.12.12,0,0,1-.133.138,4.739,4.739,0,0,1-.626-.047c-.028,0-.041.016-.041.055s.013.063.041.07c.329.074.51.211.544.414a.121.121,0,0,0,.132.1.691.691,0,0,0,.4-.133.605.605,0,0,0,.187-.515l-.019-2.551v-1.05c.15-.095.224-.164.224-.207s-.051-.123-.151-.216m-.557,2.329H38.862v-.939h1.221Zm0-1.175H38.862v-.884h1.221Zm.7-1.9a2.864,2.864,0,0,1-.265.548.015.015,0,0,0,0,.012c0,.035.02.051.059.051a.034.034,0,0,0,.028-.009,4.353,4.353,0,0,0,.457-.335.365.365,0,0,1,.169-.106c.161-.015.242-.051.242-.111a.508.508,0,0,0-.169-.277q-.224-.233-.288-.233c-.036,0-.119.078-.246.233h-.083V67.34c.137-.082.205-.148.205-.2s-.05-.112-.151-.2q-.224-.2-.288-.2c-.039,0-.126.078-.26.234H38.784q-.169-.092-.539-.253.036.4.036,1.169v1.519h-.187c-.009-.052-.033-.153-.073-.3a.046.046,0,0,0-.05-.037c-.031,0-.046.012-.046.037a1.831,1.831,0,0,1-.059.576,1.2,1.2,0,0,1-.3.492.4.4,0,0,0-.142.3.29.29,0,0,0,.069.2.246.246,0,0,0,.192.087.355.355,0,0,0,.315-.23,1.4,1.4,0,0,0,.133-.662c0-.077,0-.154-.009-.231Zm-.548-.226h-.549V68.368h.549Zm-1.508-2.2h1.508v.925h-.512a3.05,3.05,0,0,0-.5-.262,5.837,5.837,0,0,1,.046.783v.754H38.73Zm2.784.093q.041.409.041,1.32l-.032,1.635c0,.114.072.169.215.169.189,0,.283-.072.283-.216v-.1h3.227c0,.107.068.16.205.16.2,0,.293-.068.293-.207l-.032-1.546v-.512c.152-.091.228-.168.228-.224s-.047-.122-.141-.208c-.171-.156-.278-.235-.32-.235s-.142.088-.288.263h-.75v-.6c.168-.064.252-.128.252-.188,0-.085-.248-.164-.745-.235a8.789,8.789,0,0,1,.046,1.026h-.768V67c.168-.07.251-.133.251-.188q0-.134-.736-.208a9.072,9.072,0,0,1,.036,1.008h-.686a5.374,5.374,0,0,0-.58-.3m2.929.538h.8v.879h-.8Zm0,1.114h.8v.924h-.8Zm-1.216-1.114h.767v.879h-.767Zm0,1.114h.767v.924h-.767Zm-.448.924H42.02v-.924h.759Zm0-1.159H42.02v-.879h.759Zm8.424-.783c.222,0,.334-.123.334-.368a.7.7,0,0,0-.256-.5,2.161,2.161,0,0,0-.877-.469.042.042,0,0,0-.019-.005c-.043,0-.064.02-.064.056a.038.038,0,0,0,.019.031,2.148,2.148,0,0,1,.58,1q.073.253.284.253m5.508,6.375a6.446,6.446,0,0,1-2.3-.455,4.282,4.282,0,0,1-1.9-1.487h3.9c.082,0,.123-.027.123-.083s-.066-.146-.2-.253a2.09,2.09,0,0,0-.544-.377q-.069,0-.466.478H52.4l.01-.028q.055-.267.082-.4c.21-.07.315-.152.315-.244,0-.052-.047-.094-.142-.124s-.352-.072-.773-.133v.1a3.01,3.01,0,0,1-.041.474c-.012.077-.035.2-.068.359h-2.7a4.435,4.435,0,0,1-.759-.065l.083.354a3.587,3.587,0,0,1,.676-.055h2.619a3.1,3.1,0,0,1-.635,1.105,5.5,5.5,0,0,1-2.806,1.45c-.022,0-.032.021-.032.055,0,.07.02.1.059.1a6.023,6.023,0,0,0,2.984-1.115,3.046,3.046,0,0,0,1.052-1.538,4.489,4.489,0,0,0,1.691,1.819,6.03,6.03,0,0,0,1.6.681,1.885,1.885,0,0,0,.457.083.148.148,0,0,0,.16-.115,1.081,1.081,0,0,1,.178-.317.639.639,0,0,1,.3-.161.056.056,0,0,0,.041-.06.036.036,0,0,0-.041-.041M49.439,68.05a3.309,3.309,0,0,1-.732-.078l.091.368a3.31,3.31,0,0,1,.649-.056h2.583v1.091H49.969a3.689,3.689,0,0,1-.718-.074l.092.365a3.063,3.063,0,0,1,.635-.056h2.053v1.174H49.064a4.206,4.206,0,0,1-.777-.065l.091.355a3.937,3.937,0,0,1,.695-.056h7.318c.089,0,.132-.027.132-.082s-.068-.142-.205-.258a2.055,2.055,0,0,0-.508-.36q-.078,0-.475.466H52.611V69.61H55.5c.079,0,.119-.03.119-.092s-.066-.142-.2-.243a2.006,2.006,0,0,0-.484-.332c-.052,0-.2.144-.448.433H52.611V68.284h3.511c.082,0,.123-.031.123-.091s-.072-.141-.215-.257a1.9,1.9,0,0,0-.489-.341q-.069,0-.466.455H53.342a6.273,6.273,0,0,0,.9-.888c.256-.015.384-.066.384-.152s-.274-.236-.823-.46a3.474,3.474,0,0,1-.178.469,6.506,6.506,0,0,1-.562,1.031Zm10.028,1.174H60.2a4.858,4.858,0,0,1-.233,1.233,3.6,3.6,0,0,1-1.1,1.483.042.042,0,0,0-.013.032.069.069,0,0,0,.078.078.064.064,0,0,0,.018,0A3.493,3.493,0,0,0,60.4,70.619a3.992,3.992,0,0,0,.348-1.4H61.9v.414l-.045,1.887c0,.156.087.234.26.234q.366,0,.366-.271l-.036-2.038v-.226h1.376c.083,0,.123-.03.123-.092s-.059-.13-.178-.226a1.515,1.515,0,0,0-.457-.331q-.073,0-.407.414h-.457V67.36h1.124c.079,0,.119-.028.119-.083s-.056-.136-.169-.225a1.624,1.624,0,0,0-.476-.332q-.078,0-.411.405H59.691a4.164,4.164,0,0,1-.686-.054l.1.344a3.35,3.35,0,0,1,.6-.055h.53v.8c0,.211-.006.488-.018.829h-.745a3.727,3.727,0,0,1-.713-.064l.091.354a3.534,3.534,0,0,1,.622-.055m1.316-1.1V67.36H61.9v1.629H60.765c.012-.34.018-.63.018-.865m6.267,6.259a2.006,2.006,0,0,0-.535-.378q-.078,0-.507.5H63.22V72.952h2.866q.118,0,.119-.083c0-.055-.068-.139-.205-.253a1.775,1.775,0,0,0-.5-.359q-.083,0-.48.46h-1.8v-.685q.3-.139.3-.25c0-.049-.043-.088-.128-.115a4.669,4.669,0,0,0-.791-.129c.025.24.037.6.037,1.1v.083H60.431a4.2,4.2,0,0,1-.7-.056l.1.345a3.329,3.329,0,0,1,.617-.055h2.2v1.555h-3.1a4.479,4.479,0,0,1-.731-.064l.1.355a3.561,3.561,0,0,1,.635-.056h7.6c.082,0,.123-.03.123-.091s-.072-.15-.215-.267m-2.157-7.236a4.666,4.666,0,0,0-.755-.119,14.364,14.364,0,0,1,.046,1.444l-.027,1.874c0,.15.084.226.252.226.232,0,.347-.084.347-.254l-.028-1.988v-.819c.193-.086.288-.164.288-.235s-.041-.1-.123-.129m.918,4.084c-.2,0-.5-.015-.9-.043-.03,0-.046.021-.046.065s.012.059.037.069a3.052,3.052,0,0,1,.6.2.377.377,0,0,1,.219.276.233.233,0,0,0,.041.121.169.169,0,0,0,.11.023.643.643,0,0,0,.443-.161.63.63,0,0,0,.252-.507l-.037-2.223v-1.9c.213-.089.32-.167.32-.235s-.045-.1-.137-.128a5.7,5.7,0,0,0-.773-.138q.037.378.037,1.454v2.97c0,.1-.056.157-.169.157M76.662,68.46q-.078,0-.379.341H73.678a6.674,6.674,0,0,1-.224-1.413c.25-.127.375-.216.375-.272,0-.04-.05-.109-.151-.208-.143-.137-.24-.206-.293-.206q-.05,0-.269.271H72.2a3.7,3.7,0,0,1-.722-.065l.1.365a3.474,3.474,0,0,1,.635-.064h1.01a11.163,11.163,0,0,0,.142,1.593h-2.6a6.272,6.272,0,0,0-.741-.378q.046.493.046,2.545,0,1.759-.055,3.849,0,.225.27.225.375,0,.375-.267v-5.74h2.587a7.777,7.777,0,0,1-2.386,3.725.043.043,0,0,0-.013.031c0,.059.026.087.078.087a.029.029,0,0,0,.018,0A6.873,6.873,0,0,0,73.6,69.78a6.636,6.636,0,0,0,1.8,2.78c.115.109.187.162.214.162s.08-.048.128-.142a.573.573,0,0,1,.384-.309.053.053,0,0,0,.05-.056.07.07,0,0,0-.032-.059,6.184,6.184,0,0,1-2.4-3.121h2.624v4.995c0,.12-.057.179-.169.179q-.512,0-1.248-.063c-.03-.007-.046.013-.046.059s.012.059.036.064a3.5,3.5,0,0,1,.814.226.412.412,0,0,1,.265.308c.015.1.06.152.132.152a.973.973,0,0,0,.457-.106.655.655,0,0,0,.393-.64l-.045-3.626V69.224c.168-.108.251-.194.251-.262a.3.3,0,0,0-.133-.208,1.44,1.44,0,0,0-.421-.294m11.592,5.592a7.087,7.087,0,0,1-1.349-.765,6.431,6.431,0,0,1-1.138-1.1,5.093,5.093,0,0,1-.5-.7,11.043,11.043,0,0,0,1.714-1.358h.083c.225,0,.338-.042.338-.124s-.268-.29-.8-.585a3.469,3.469,0,0,1-.448.745,9.318,9.318,0,0,1-.983,1.141,9.674,9.674,0,0,1-.928-2.572h3.83c.085,0,.128-.028.128-.083s-.081-.16-.242-.295a1.97,1.97,0,0,0-.544-.377q-.077,0-.512.52H84.214V67.249c.219-.092.329-.178.329-.258,0-.052-.046-.094-.137-.125a4.718,4.718,0,0,0-.828-.138,5.952,5.952,0,0,1,.046.774v.989H80.616a4.256,4.256,0,0,1-.759-.065l.1.354a4.587,4.587,0,0,1,.663-.055H83.34A9.571,9.571,0,0,1,79.766,72.2a.032.032,0,0,0-.018.032c0,.061.026.092.078.092h.013a9.738,9.738,0,0,0,2.144-1.243v2.7q-.38.115-.841.208a3.625,3.625,0,0,1-.64.087c.122.362.211.606.27.732s.113.193.165.193c.076,0,.138-.117.187-.35A16.446,16.446,0,0,0,84.908,72.9a.037.037,0,0,0,.018-.038c0-.051-.021-.077-.064-.077a.028.028,0,0,0-.014,0q-1.257.524-2.313.847V70.609a7.835,7.835,0,0,0,.983-1.119q.215-.294.5-.764h.018a9.285,9.285,0,0,0,1.284,3.742,6.972,6.972,0,0,0,2.016,2.071.915.915,0,0,0,.357.17.145.145,0,0,0,.137-.114.966.966,0,0,1,.151-.3.44.44,0,0,1,.256-.134.069.069,0,0,0,.05-.07.04.04,0,0,0-.032-.041" transform="translate(-4.391 -27.834)" fill="#b6a453"/>
      </g>
    </g>
    <g id="Group_4" data-name="Group 4" transform="translate(110 0)">
      <g id="Group_3" data-name="Group 3" transform="translate(0 0)" clip-path="url(#clip-path-2)">
        <path id="Path_21" data-name="Path 21" d="M2.966,16.651H5.548V.735H2.966V.409h7.492V.735H7.875V16.651h4.142a4.119,4.119,0,0,0,3.211-1.28,7.835,7.835,0,0,0,1.7-3.49h.256v5.1H2.966Z" transform="translate(0.067 0.009)" fill="#995f70"/>
        <path id="Path_22" data-name="Path 22" d="M18.349.409h7.492V.734H23.258v11.24a9.783,9.783,0,0,0,.244,2.361,3.93,3.93,0,0,0,.733,1.559,2.716,2.716,0,0,0,1.21.85A4.92,4.92,0,0,0,27.1,17a6.416,6.416,0,0,0,2.3-.383,3.857,3.857,0,0,0,1.721-1.361,5.77,5.77,0,0,0,.408-.605,3.648,3.648,0,0,0,.3-.711,5.6,5.6,0,0,0,.2-.978,11.76,11.76,0,0,0,.07-1.407V.734H29.518V.409h5.515V.734H32.449V12.02a7.082,7.082,0,0,1-.209,1.78,4.828,4.828,0,0,1-.862,1.664,4.416,4.416,0,0,1-1.745,1.35,7.18,7.18,0,0,1-2.955.512,6.043,6.043,0,0,1-4.269-1.373,5.482,5.482,0,0,1-1.479-4.212V.734H18.349Z" transform="translate(0.414 0.009)" fill="#995f70"/>
        <path id="Path_23" data-name="Path 23" d="M35.619,16.651H38.2V.735H35.619V.409H40.6l7.866,12.683h.045V.735H45.928V.409h5.515V.735H48.86V17.3h-.465L38.6,1.689h-.047V16.651h2.584v.325H35.619Z" transform="translate(0.804 0.009)" fill="#995f70"/>
        <path id="Path_24" data-name="Path 24" d="M51.548,16.661H53.6L59.879,0h.558l6.329,16.661h2.072v.325H61.67v-.325h2.583l-2.443-6.47h-5.4l-2.443,6.47h2.583v.325h-5ZM59.111,3.094,56.551,9.866H61.67Z" transform="translate(1.163 0)" fill="#995f70"/>
        <path id="Path_25" data-name="Path 25" d="M4.617,30.152h1.1v-5.74h-1.1v-.2h2.3v1.532h.029q.086-.186.251-.471a2.464,2.464,0,0,1,.451-.558,2.458,2.458,0,0,1,1.761-.66,2.456,2.456,0,0,1,1.54.458,1.732,1.732,0,0,1,.593,1.46v4.18h1.1v.2H9.212v-.2h1.1V25.529a1.511,1.511,0,0,0-.264-.917.959.959,0,0,0-.824-.358,1.98,1.98,0,0,0-.873.2,2.3,2.3,0,0,0-.73.558,2.634,2.634,0,0,0-.494.844,3.068,3.068,0,0,0-.179,1.059v3.235h1.1v.2H4.617Z" transform="translate(0.104 0.543)" fill="#995f70"/>
        <path id="Path_26" data-name="Path 26" d="M19.791,30.2a1.93,1.93,0,0,1-.444.252,1.638,1.638,0,0,1-.63.107,1.411,1.411,0,0,1-.995-.293,1.569,1.569,0,0,1-.422-.824h-.029c-.039.087-.091.194-.157.323a1.281,1.281,0,0,1-.308.372,1.716,1.716,0,0,1-.551.3,2.664,2.664,0,0,1-.873.122,2.784,2.784,0,0,1-.959-.136,1.562,1.562,0,0,1-.558-.336.966.966,0,0,1-.264-.451,1.884,1.884,0,0,1-.065-.465,1.427,1.427,0,0,1,.2-.8,1.488,1.488,0,0,1,.523-.479,3.45,3.45,0,0,1,.716-.293q.394-.115.795-.244.472-.156.78-.271a1.4,1.4,0,0,0,.48-.279.849.849,0,0,0,.236-.415,2.842,2.842,0,0,0,.064-.68,3.985,3.985,0,0,0-.043-.617,1.307,1.307,0,0,0-.157-.465.735.735,0,0,0-.329-.292,1.375,1.375,0,0,0-.573-.1,1.634,1.634,0,0,0-.78.166.562.562,0,0,0-.308.537,2.689,2.689,0,0,0,.043.48,2.171,2.171,0,0,1,.043.351.448.448,0,0,1-.143.336.578.578,0,0,1-.415.135c-.315,0-.511-.056-.587-.172a.778.778,0,0,1-.115-.443,1.334,1.334,0,0,1,.143-.6,1.5,1.5,0,0,1,.422-.508,2.1,2.1,0,0,1,.7-.351,3.282,3.282,0,0,1,.967-.13,3.225,3.225,0,0,1,1.1.165,1.9,1.9,0,0,1,.716.445,1.594,1.594,0,0,1,.387.63,2.352,2.352,0,0,1,.115.737v3.565a.868.868,0,0,0,.129.558.476.476,0,0,0,.372.143,1.048,1.048,0,0,0,.329-.057,1.223,1.223,0,0,0,.329-.172Zm-2.505-3.349h-.029q-.029.186-.472.371l-1.074.429a1.567,1.567,0,0,0-.7.524,1.387,1.387,0,0,0-.243.836,2.415,2.415,0,0,0,.043.445,1.124,1.124,0,0,0,.157.407.871.871,0,0,0,.322.293,1.091,1.091,0,0,0,.537.116,1.329,1.329,0,0,0,.766-.2,1.3,1.3,0,0,0,.444-.5,2.091,2.091,0,0,0,.2-.652,4.621,4.621,0,0,0,.05-.637Z" transform="translate(0.305 0.542)" fill="#995f70"/>
        <path id="Path_27" data-name="Path 27" d="M19.793,24.251h1.1V22.4c.076.029.148.052.215.072a1.453,1.453,0,0,0,.344.029,1.256,1.256,0,0,0,.372-.05.958.958,0,0,0,.3-.165v1.961h2.033v.2H22.127v4.68a2.239,2.239,0,0,0,.079.652.984.984,0,0,0,.208.387.618.618,0,0,0,.279.179,1.062,1.062,0,0,0,.293.043,1.006,1.006,0,0,0,.809-.366,1.766,1.766,0,0,0,.394-.836l.2.071a3.342,3.342,0,0,1-.129.416,1.424,1.424,0,0,1-.265.436,1.389,1.389,0,0,1-.465.345,1.677,1.677,0,0,1-.716.136,2.121,2.121,0,0,1-1.5-.415A1.574,1.574,0,0,1,20.9,29V24.452h-1.1Z" transform="translate(0.447 0.503)" fill="#995f70"/>
        <path id="Path_28" data-name="Path 28" d="M32.775,30.35h-2.3V28.9h-.028a5.256,5.256,0,0,1-.309.58,2.3,2.3,0,0,1-.444.53,2.239,2.239,0,0,1-.615.387,2.084,2.084,0,0,1-.824.15,2.8,2.8,0,0,1-.931-.129,2.365,2.365,0,0,1-.558-.272,2.666,2.666,0,0,1-.222-.179,1.039,1.039,0,0,1-.221-.293,1.986,1.986,0,0,1-.172-.48,3.079,3.079,0,0,1-.073-.723V24.408h-1.1v-.2h2.334v4.4a4.462,4.462,0,0,0,.05.687,1.507,1.507,0,0,0,.194.551,1.055,1.055,0,0,0,.372.372,1.161,1.161,0,0,0,.6.136,1.344,1.344,0,0,0,.65-.186,2.12,2.12,0,0,0,.616-.53,2.992,2.992,0,0,0,.652-1.9V24.408H29.354v-.2h2.32v5.941h1.1Z" transform="translate(0.564 0.547)" fill="#995f70"/>
        <path id="Path_29" data-name="Path 29" d="M33.177,30.152h1.1v-5.74h-1.1v-.2h2.3v1.446h.029a2.907,2.907,0,0,1,.186-.487,2.13,2.13,0,0,1,.357-.523,2.061,2.061,0,0,1,.552-.422,1.65,1.65,0,0,1,.78-.172,1.4,1.4,0,0,1,.573.108,1.22,1.22,0,0,1,.4.271,1,1,0,0,1,.23.379,1.346,1.346,0,0,1,.072.429.741.741,0,0,1-.216.63.817.817,0,0,1-.5.158q-.63,0-.63-.4a.615.615,0,0,1,.029-.208c.019-.052.04-.1.064-.156a1.46,1.46,0,0,0,.064-.18A1.076,1.076,0,0,0,37.5,24.8c0-.306-.168-.459-.5-.459a.888.888,0,0,0-.487.172,1.814,1.814,0,0,0-.48.5,3.089,3.089,0,0,0-.372.794,3.471,3.471,0,0,0-.15,1.067v3.278h1.245v.2H33.177Z" transform="translate(0.749 0.543)" fill="#995f70"/>
        <path id="Path_30" data-name="Path 30" d="M45.466,30.2a1.922,1.922,0,0,1-.443.252,1.64,1.64,0,0,1-.631.107,1.406,1.406,0,0,1-.994-.293,1.554,1.554,0,0,1-.422-.824h-.03c-.038.087-.091.194-.156.323a1.27,1.27,0,0,1-.309.372,1.694,1.694,0,0,1-.551.3,2.657,2.657,0,0,1-.872.122,2.786,2.786,0,0,1-.96-.136,1.571,1.571,0,0,1-.558-.336.974.974,0,0,1-.264-.451,1.88,1.88,0,0,1-.064-.465,1.427,1.427,0,0,1,.2-.8,1.5,1.5,0,0,1,.523-.479,3.473,3.473,0,0,1,.716-.293q.394-.115.8-.244c.314-.1.575-.194.779-.271A1.4,1.4,0,0,0,42.7,26.8a.865.865,0,0,0,.236-.415A2.842,2.842,0,0,0,43,25.7a4.117,4.117,0,0,0-.043-.617,1.328,1.328,0,0,0-.157-.465.738.738,0,0,0-.33-.292,1.37,1.37,0,0,0-.572-.1,1.638,1.638,0,0,0-.781.166.564.564,0,0,0-.308.537,2.69,2.69,0,0,0,.043.48,2.059,2.059,0,0,1,.043.351.447.447,0,0,1-.142.336.581.581,0,0,1-.416.135c-.314,0-.51-.056-.587-.172a.786.786,0,0,1-.114-.443,1.321,1.321,0,0,1,.143-.6,1.489,1.489,0,0,1,.422-.508,2.082,2.082,0,0,1,.7-.351,3.286,3.286,0,0,1,.967-.13,3.228,3.228,0,0,1,1.1.165,1.912,1.912,0,0,1,.716.445,1.618,1.618,0,0,1,.387.63,2.381,2.381,0,0,1,.114.737v3.565a.868.868,0,0,0,.129.558.477.477,0,0,0,.372.143,1.059,1.059,0,0,0,.33-.057,1.238,1.238,0,0,0,.329-.172Zm-2.5-3.349h-.029q-.029.186-.472.371l-1.074.429a1.576,1.576,0,0,0-.7.524,1.394,1.394,0,0,0-.243.836,2.507,2.507,0,0,0,.043.445,1.142,1.142,0,0,0,.157.407.874.874,0,0,0,.323.293,1.084,1.084,0,0,0,.536.116,1.327,1.327,0,0,0,.766-.2,1.31,1.31,0,0,0,.445-.5,2.09,2.09,0,0,0,.2-.652,4.478,4.478,0,0,0,.051-.637Z" transform="translate(0.885 0.542)" fill="#995f70"/>
        <path id="Path_31" data-name="Path 31" d="M45.9,30.241H47V20.32H45.9v-.2h2.334v10.12h1.1v.2H45.9Z" transform="translate(1.036 0.454)" fill="#995f70"/>
        <path id="Path_32" data-name="Path 32" d="M60.565,30.35h-2.3V28.9h-.029a5.422,5.422,0,0,1-.308.58,2.351,2.351,0,0,1-.444.53,2.245,2.245,0,0,1-.616.387,2.079,2.079,0,0,1-.823.15,2.8,2.8,0,0,1-.931-.129,2.365,2.365,0,0,1-.558-.272,2.666,2.666,0,0,1-.222-.179,1.022,1.022,0,0,1-.222-.293,1.986,1.986,0,0,1-.172-.48,3.084,3.084,0,0,1-.072-.723V24.408h-1.1v-.2H55.1v4.4a4.337,4.337,0,0,0,.05.687,1.506,1.506,0,0,0,.193.551,1.063,1.063,0,0,0,.372.372,1.166,1.166,0,0,0,.6.136,1.348,1.348,0,0,0,.651-.186,2.12,2.12,0,0,0,.616-.53,3.049,3.049,0,0,0,.465-.823,2.973,2.973,0,0,0,.186-1.081V24.408H57.144v-.2h2.319v5.941h1.1Z" transform="translate(1.191 0.547)" fill="#995f70"/>
        <path id="Path_33" data-name="Path 33" d="M60.7,34.162h1.1V24.413H60.7v-.2h2.3v1.2h.029a2.19,2.19,0,0,1,.709-.995,1.992,1.992,0,0,1,1.281-.394,2.609,2.609,0,0,1,1.16.265A3.29,3.29,0,0,1,67.8,26.016a3.246,3.246,0,0,1-.007,2.484,3.552,3.552,0,0,1-.68,1.052,3.316,3.316,0,0,1-.995.73,2.728,2.728,0,0,1-1.2.272,1.849,1.849,0,0,1-.823-.165A1.928,1.928,0,0,1,63.55,30a1.778,1.778,0,0,1-.329-.458,2.649,2.649,0,0,1-.157-.379h-.029v5h1.1v.2H60.7Zm5.912-7.086a8.721,8.721,0,0,0-.072-1.181A3.014,3.014,0,0,0,66.291,25a1.346,1.346,0,0,0-.5-.573,1.532,1.532,0,0,0-.823-.2,1.815,1.815,0,0,0-.873.186,1.71,1.71,0,0,0-.558.472,1.786,1.786,0,0,0-.251.429,2.8,2.8,0,0,0-.15.544,5.857,5.857,0,0,0-.079.723q-.021.408-.021.966a6.814,6.814,0,0,0,.072.973,2.984,2.984,0,0,0,.272.909,1.743,1.743,0,0,0,.565.666,1.971,1.971,0,0,0,1.9.029,1.38,1.38,0,0,0,.515-.659,3.459,3.459,0,0,0,.215-1.038c.029-.4.043-.857.043-1.353" transform="translate(1.37 0.542)" fill="#995f70"/>
        <path id="Path_34" data-name="Path 34" d="M17.539,39.1a1.022,1.022,0,0,0,.45-.548,1.956,1.956,0,0,0,.139-.7.688.688,0,0,0-.221-.531.82.82,0,0,0-.581-.206,2.1,2.1,0,0,0-1.113.36,6.851,6.851,0,0,0-1.113.883,9.8,9.8,0,0,0-1,1.129q-.459.606-.786,1.1a37.13,37.13,0,0,0-2,3.567q-.974,1.965-1.89,4.058H9.309a9.424,9.424,0,0,0,.2-1.882,13.323,13.323,0,0,0-.1-1.62c-.065-.534-.136-1.075-.213-1.62s-.147-1.069-.213-1.6a13.31,13.31,0,0,1-.1-1.62c0-.2,0-.39.008-.58s.009-.391.009-.6H8.869q-.313.653-.745,1.611t-.982,2.021q-.548,1.064-1.211,2.111a14.685,14.685,0,0,1-1.407,1.89,7.488,7.488,0,0,1-1.562,1.366,3.115,3.115,0,0,1-1.7.524,1.926,1.926,0,0,1-.417-.049,1.677,1.677,0,0,1-.409-.147.887.887,0,0,1-.31-.262A.637.637,0,0,1,0,47.362a.577.577,0,0,1,.179-.434.618.618,0,0,1,.442-.172.477.477,0,0,1,.492.491.74.74,0,0,1-.042.237.229.229,0,0,1-.171.156.394.394,0,0,0,.164.2.738.738,0,0,0,.457.115,2.665,2.665,0,0,0,1.5-.5,7.451,7.451,0,0,0,1.457-1.317,14.479,14.479,0,0,0,1.373-1.89q.663-1.071,1.26-2.2T8.23,39.8q.523-1.123.934-2.054c.02-.109.05-.237.089-.384a1.81,1.81,0,0,1,.172-.425,1.283,1.283,0,0,1,.287-.352.592.592,0,0,1,.4-.146,2.421,2.421,0,0,1-.131.334,2.5,2.5,0,0,0-.147.417,5.272,5.272,0,0,0-.114.6,6.639,6.639,0,0,0-.049.909,9.065,9.065,0,0,0,.1,1.332q.1.663.213,1.366t.213,1.456a12.423,12.423,0,0,1,.1,1.6,7.788,7.788,0,0,1-.064.982,8.126,8.126,0,0,1-.23,1.1l.033.032c.2-.436.419-.923.672-1.464s.514-1.082.792-1.628.565-1.08.86-1.6.572-.987.833-1.391q.572-.867,1.145-1.579a11.052,11.052,0,0,1,1.145-1.235,5.307,5.307,0,0,1,1.129-.81,2.35,2.35,0,0,1,1.081-.285,1.283,1.283,0,0,1,.892.3.99.99,0,0,1,.335.762,1.189,1.189,0,0,1-.123.539,1.825,1.825,0,0,1-.32.45,2.077,2.077,0,0,1-.442.352,2.46,2.46,0,0,1-.491.229Z" transform="translate(0 0.822)" fill="#995f70"/>
        <path id="Path_35" data-name="Path 35" d="M16.438,42.389q-.9,1.292-1.522,2.175t-1.005,1.474a10.125,10.125,0,0,0-.557.932,1.343,1.343,0,0,0-.172.556c0,.284.115.425.344.425a1.64,1.64,0,0,0,.761-.236,6.442,6.442,0,0,0,.908-.615,11.1,11.1,0,0,0,.949-.85c.317-.317.614-.63.892-.942s.524-.61.736-.9a6.147,6.147,0,0,0,.466-.711l.131.082q-.2.327-.532.784t-.761.941q-.425.483-.9.958a9.755,9.755,0,0,1-.965.85,5.809,5.809,0,0,1-.956.606,1.974,1.974,0,0,1-.86.228.822.822,0,0,1-.654-.245.8.8,0,0,1-.213-.539,1.945,1.945,0,0,1,.155-.728,6.511,6.511,0,0,1,.5-.942q.344-.555.892-1.349t1.317-1.955Zm.949-3.044a.5.5,0,0,1,.376.155.576.576,0,0,1,0,.769.531.531,0,0,1-.753,0,.576.576,0,0,1,0-.769.5.5,0,0,1,.376-.155" transform="translate(0.283 0.888)" fill="#995f70"/>
        <path id="Path_36" data-name="Path 36" d="M23.826,42.325q-.98,1.325-1.857,2.7t-1.808,2.732a6.644,6.644,0,0,0,1.613-.588,8.688,8.688,0,0,0,1.5-.982,10.528,10.528,0,0,0,1.3-1.261,9.126,9.126,0,0,0,1.005-1.391l.066.1a9.28,9.28,0,0,1-1.58,2.045A9.94,9.94,0,0,1,22.4,46.987a7.551,7.551,0,0,1-1.439.712,4.991,4.991,0,0,1-.916.254,1.848,1.848,0,0,0-.328.425q-.245.377-.654.916a14.776,14.776,0,0,1-.973,1.145,8.8,8.8,0,0,1-1.275,1.122,7.258,7.258,0,0,1-1.58.859,5.026,5.026,0,0,1-1.864.344,4.395,4.395,0,0,1-1.1-.131,2.838,2.838,0,0,1-.875-.377,1.836,1.836,0,0,1-.573-.589,1.464,1.464,0,0,1-.2-.769,1.52,1.52,0,0,1,.507-1.169,1.81,1.81,0,0,1,1.276-.466,1.965,1.965,0,0,1,.27.015,1.909,1.909,0,0,1,.22.049v.131h-.13a1.125,1.125,0,0,0-.949.4,1.7,1.7,0,0,0-.311,1.072,1.674,1.674,0,0,0,.155.753,1.384,1.384,0,0,0,.424.506,1.782,1.782,0,0,0,.631.286,3.258,3.258,0,0,0,2.2-.245,6.174,6.174,0,0,0,1.333-.882,11.057,11.057,0,0,0,1.218-1.235q.581-.689,1.1-1.384t.94-1.341c.285-.432.535-.8.753-1.1l-.033-.034q-.261.311-.58.631a6.53,6.53,0,0,1-.68.589,3.75,3.75,0,0,1-.753.441,2,2,0,0,1-.818.172,1.19,1.19,0,0,1-.54-.115,1.078,1.078,0,0,1-.376-.3,1.187,1.187,0,0,1-.213-.417,1.62,1.62,0,0,1-.064-.442,2.769,2.769,0,0,1,.22-1.046A5.347,5.347,0,0,1,17,44.705a6.269,6.269,0,0,1,.834-.966,7.572,7.572,0,0,1,.989-.794,5.407,5.407,0,0,1,1.039-.547,2.661,2.661,0,0,1,.966-.2,1.184,1.184,0,0,1,.923.318,1.08,1.08,0,0,1,.287.745h.049l.6-.933Zm-3.026.064a2.06,2.06,0,0,0-1.171.45,6.234,6.234,0,0,0-1.178,1.121,6.712,6.712,0,0,0-.907,1.456,3.534,3.534,0,0,0-.361,1.472.873.873,0,0,0,.188.582.61.61,0,0,0,.483.221,1.406,1.406,0,0,0,.6-.189,4.159,4.159,0,0,0,.769-.524,8.334,8.334,0,0,0,.81-.784,6.819,6.819,0,0,0,.728-.958,5.7,5.7,0,0,0,.524-1.055,3.075,3.075,0,0,0,.2-1.088.816.816,0,0,0-.155-.491.616.616,0,0,0-.531-.213" transform="translate(0.24 0.952)" fill="#995f70"/>
        <path id="Path_37" data-name="Path 37" d="M30.744,36.753l-5.792,8.606.033.033q.327-.408.769-.941a10.561,10.561,0,0,1,.957-1.006,6.011,6.011,0,0,1,1.088-.8,2.283,2.283,0,0,1,1.145-.328.882.882,0,0,1,1,1,1.4,1.4,0,0,1-.188.622,6.548,6.548,0,0,1-.474.762c-.191.266-.395.537-.614.81s-.422.537-.614.792a6.751,6.751,0,0,0-.474.72,1.217,1.217,0,0,0-.188.564.449.449,0,0,0,.106.3.359.359,0,0,0,.286.122,1.79,1.79,0,0,0,.826-.237,5.929,5.929,0,0,0,.933-.622,11.237,11.237,0,0,0,.957-.859q.474-.474.875-.941t.72-.883a6.181,6.181,0,0,0,.466-.679l.1.033a8.277,8.277,0,0,1-.507.753c-.219.3-.466.605-.744.934s-.578.651-.9.973a11.87,11.87,0,0,1-.966.866,5.534,5.534,0,0,1-.957.623,2,2,0,0,1-.884.236.915.915,0,0,1-.965-.982,1.7,1.7,0,0,1,.188-.72,5.192,5.192,0,0,1,.475-.792q.285-.4.613-.8t.614-.762a6.946,6.946,0,0,0,.474-.663,1.026,1.026,0,0,0,.188-.515.4.4,0,0,0-.147-.359.626.626,0,0,0-.36-.1,1.785,1.785,0,0,0-.908.3,6.407,6.407,0,0,0-1.03.792,12.616,12.616,0,0,0-1.056,1.1q-.523.615-.989,1.235t-.819,1.179c-.235.37-.416.686-.548.948H22.367q.9-1.407,1.849-2.863t1.89-2.9q.94-1.439,1.841-2.839t1.7-2.675Z" transform="translate(0.505 0.83)" fill="#995f70"/>
        <path id="Path_38" data-name="Path 38" d="M35.241,40.465l-1.293,1.9h2.161l-.1.2H33.817q-.653,1.063-1.169,1.841t-.868,1.341a9.486,9.486,0,0,0-.531.949,1.637,1.637,0,0,0-.181.679.459.459,0,0,0,.213.435.966.966,0,0,0,.491.122,2.5,2.5,0,0,0,1.3-.45,9.672,9.672,0,0,0,1.415-1.1,17.975,17.975,0,0,0,1.341-1.391q.638-.735,1.081-1.325l.1.066c-.372.469-.777.962-1.22,1.481a16.05,16.05,0,0,1-1.366,1.422A8.672,8.672,0,0,1,33.007,47.7a2.637,2.637,0,0,1-1.35.425,1.314,1.314,0,0,1-.874-.31,1.074,1.074,0,0,1-.369-.868,2.064,2.064,0,0,1,.213-.842,8.479,8.479,0,0,1,.556-1.007q.345-.538.777-1.178t.892-1.357h-.882l.1-.2h.916l1.276-1.9Z" transform="translate(0.686 0.913)" fill="#995f70"/>
        <path id="Path_39" data-name="Path 39" d="M46.4,40.738q.049.344.064.58c.011.16.017.325.017.5a4.654,4.654,0,0,1-.2,1.391A3.868,3.868,0,0,1,45.7,44.37a2.77,2.77,0,0,1-.924.8,2.582,2.582,0,0,1-1.235.294,2.463,2.463,0,0,1-1.072-.222,2.36,2.36,0,0,1-.785-.588,2.531,2.531,0,0,1-.483-.851,3.179,3.179,0,0,1-.164-1.023,4.238,4.238,0,0,1,.278-1.472,6.087,6.087,0,0,1,.785-1.456,7.511,7.511,0,0,1,1.235-1.325,8.53,8.53,0,0,1,1.636-1.089,9.358,9.358,0,0,1,1.963-.735,8.981,8.981,0,0,1,2.233-.27,8.013,8.013,0,0,1,1.751.18,5.174,5.174,0,0,1,1.391.507,6.733,6.733,0,0,1,1.2-.533,7.641,7.641,0,0,1,1.072-.254v.2a6.975,6.975,0,0,0-1.014.236,4.186,4.186,0,0,0-1.014.5,3.362,3.362,0,0,1,.806.892,2.25,2.25,0,0,1,.274,1.153,2.327,2.327,0,0,1-.278,1.13,3.037,3.037,0,0,1-.721.874,4.168,4.168,0,0,1-1,.615,4.913,4.913,0,0,1-1.114.344v.032a3.069,3.069,0,0,1,.879.155,2.2,2.2,0,0,1,.707.393,1.759,1.759,0,0,1,.472.638,2.232,2.232,0,0,1,.171.909,3.1,3.1,0,0,1-.376,1.5,4.5,4.5,0,0,1-2.225,2.02,3.531,3.531,0,0,1-1.374.3,2.542,2.542,0,0,1-1.5-.4,1.212,1.212,0,0,1-.563-1.023,1.04,1.04,0,0,1,.256-.7.86.86,0,0,1,.684-.295.635.635,0,0,1,.46.2.506.506,0,0,0-.4.318,1.725,1.725,0,0,0-.117.679.949.949,0,0,0,.327.737,1.2,1.2,0,0,0,.834.293,2.633,2.633,0,0,0,1.317-.318,2.9,2.9,0,0,0,.941-.844,3.742,3.742,0,0,0,.563-1.194,5,5,0,0,0,.189-1.373,1.919,1.919,0,0,0-.18-.876,1.521,1.521,0,0,0-.491-.564,1.949,1.949,0,0,0-.728-.294,4.745,4.745,0,0,0-.892-.082v-.2a3.477,3.477,0,0,0,1.333-.245,2.974,2.974,0,0,0,1.023-.687A3.141,3.141,0,0,0,52.5,40.3a3.566,3.566,0,0,0,.237-1.309,1.934,1.934,0,0,0-.147-.736,2.073,2.073,0,0,0-.41-.638,8.5,8.5,0,0,0-1.48,1.751q-.7,1.064-1.391,2.258t-1.423,2.389a15.585,15.585,0,0,1-1.571,2.161,7.878,7.878,0,0,1-1.841,1.571,4.213,4.213,0,0,1-2.225.6,2.23,2.23,0,0,1-1.342-.359,1.053,1.053,0,0,1-.491-.868A.7.7,0,0,1,40.6,46.6a.634.634,0,0,1,.466-.187.5.5,0,0,1,.417.172.67.67,0,0,1,.139.434.531.531,0,0,1-.54.54.481.481,0,0,0,.164.277,1.1,1.1,0,0,0,.3.189,1.347,1.347,0,0,0,.352.1,2.52,2.52,0,0,0,.311.025,3.178,3.178,0,0,0,1.44-.312,4.179,4.179,0,0,0,1.17-.892,9.672,9.672,0,0,0,1.08-1.407q.531-.825,1.153-1.856.653-1.063,1.219-2t1.137-1.742A14.105,14.105,0,0,1,50.6,38.48a6.7,6.7,0,0,1,1.35-1.114,2.943,2.943,0,0,0-1.276-.58,7.779,7.779,0,0,0-1.587-.156,8.045,8.045,0,0,0-2.88.515A8.3,8.3,0,0,0,43.834,38.5a6.677,6.677,0,0,0-1.612,1.931,4.613,4.613,0,0,0-.6,2.25,3.848,3.848,0,0,0,.114.909,2.75,2.75,0,0,0,.353.833,2.007,2.007,0,0,0,.6.605,1.509,1.509,0,0,0,.851.238,2.385,2.385,0,0,0,1.113-.262,2.632,2.632,0,0,0,.867-.72,3.47,3.47,0,0,0,.564-1.1,4.623,4.623,0,0,0,.2-1.4c0-.173-.005-.345-.016-.514s-.028-.341-.049-.515Z" transform="translate(0.912 0.82)" fill="#995f70"/>
        <path id="Path_40" data-name="Path 40" d="M56.723,42.324l-2.078,3.027.033.033q.229-.278.581-.646t.769-.753q.417-.385.875-.761t.9-.671a.986.986,0,0,1,.18-.262.568.568,0,0,1,.393-.1c.12,0,.226,0,.319.008s.188.014.286.025a4.2,4.2,0,0,0-.54.679,1.564,1.564,0,0,0-.262.875.858.858,0,0,0,.188.589.6.6,0,0,0,.466.213,1.253,1.253,0,0,0,.483-.1,2.434,2.434,0,0,0,.45-.245c.141-.1.278-.2.409-.311s.245-.208.344-.294l.1.065c-.109.108-.235.226-.376.351a4.03,4.03,0,0,1-.458.353,2.615,2.615,0,0,1-.524.27,1.6,1.6,0,0,1-.573.106,1.138,1.138,0,0,1-.843-.319,1.2,1.2,0,0,1-.319-.892,1.38,1.38,0,0,1,.18-.7l-.033-.033a12.994,12.994,0,0,0-1.472,1.2q-.8.744-1.7,1.759a5.992,5.992,0,0,0-.679.949,9.679,9.679,0,0,0-.614,1.211H52.142q.883-1.407,1.767-2.8t1.816-2.83Z" transform="translate(1.177 0.952)" fill="#995f70"/>
        <path id="Path_41" data-name="Path 41" d="M64.73,42.325h1.063q-.6.85-1.161,1.652t-.99,1.48q-.434.679-.7,1.194a1.974,1.974,0,0,0-.263.81c0,.284.148.425.443.425A1.769,1.769,0,0,0,64,47.552a7.789,7.789,0,0,0,1.152-.924,16.126,16.126,0,0,0,1.277-1.374,19.6,19.6,0,0,0,1.242-1.67l.1.033q-.442.672-1.04,1.448a15.867,15.867,0,0,1-1.251,1.448,8.87,8.87,0,0,1-1.31,1.122,2.2,2.2,0,0,1-1.226.449.912.912,0,0,1-.7-.236.8.8,0,0,1-.221-.565,1.4,1.4,0,0,1,.074-.449c.049-.148.1-.3.154-.451l-.032-.015c-.141.152-.319.329-.532.531a6.268,6.268,0,0,1-.687.564,4.7,4.7,0,0,1-.761.443,1.808,1.808,0,0,1-.754.179.936.936,0,0,1-.85-.376,1.521,1.521,0,0,1-.245-.851,3.231,3.231,0,0,1,.425-1.48,7.124,7.124,0,0,1,1.08-1.522,6.759,6.759,0,0,1,1.422-1.187,2.8,2.8,0,0,1,1.457-.473,1.68,1.68,0,0,1,.573.089,1.169,1.169,0,0,1,.409.246,1.138,1.138,0,0,1,.254.351,2.106,2.106,0,0,1,.139.41h.033ZM59.381,46.9a.949.949,0,0,0,.154.581.516.516,0,0,0,.435.206,1.415,1.415,0,0,0,.654-.206,4.646,4.646,0,0,0,.784-.548,7.623,7.623,0,0,0,.81-.792,6.633,6.633,0,0,0,.713-.958,6.013,6.013,0,0,0,.507-1.031,2.838,2.838,0,0,0,.2-1,.7.7,0,0,0-.737-.769,1.979,1.979,0,0,0-1.1.425A5.808,5.808,0,0,0,60.657,43.9a6.857,6.857,0,0,0-.909,1.464,3.7,3.7,0,0,0-.367,1.538" transform="translate(1.318 0.952)" fill="#995f70"/>
      </g>
    </g>
  </g>
</svg>
